<svg width="24" height="24" viewBox="0 0 24 24" fill="none" xmlns="http://www.w3.org/2000/svg">
<circle cx="12" cy="12" r="12" fill="#1A1BC9"/>
<path d="M11.9595 10.0387C11.8244 9.90274 11.6746 9.78225 11.5128 9.6794C11.0844 9.40506 10.5863 9.25928 10.0776 9.25928C9.37151 9.25797 8.6941 9.53852 8.19568 10.0387L5.77768 12.4586C5.28011 12.9571 5.00045 13.6325 5 14.3369C4.99906 15.8067 6.1898 16.999 7.65961 16.9999C8.36462 17.0024 9.04141 16.7231 9.53965 16.2243L11.5356 14.2283C11.5719 14.1924 11.5922 14.1433 11.5919 14.0923C11.5913 13.9873 11.5057 13.9027 11.4007 13.9033H11.3246C10.9076 13.9047 10.4943 13.8247 10.108 13.6676C10.0369 13.6383 9.95507 13.6548 9.90084 13.7094L8.46563 15.1465C8.01996 15.5922 7.29739 15.5922 6.85173 15.1465C6.40606 14.7008 6.40606 13.9783 6.85173 13.5326L9.27924 11.107C9.72455 10.6622 10.4459 10.6622 10.8912 11.107C11.1914 11.3894 11.6595 11.3894 11.9596 11.107C12.0887 10.9778 12.167 10.8064 12.1801 10.6242C12.194 10.4064 12.1137 10.1931 11.9595 10.0387Z" fill="white"/>
<path d="M11.0289 12.9278C11.1445 13.0807 11.2768 13.2203 11.4232 13.3439C11.8108 13.6735 12.2847 13.885 12.7888 13.9534C13.4883 14.0498 14.1973 13.863 14.7585 13.4345L17.4803 11.3621C18.0404 10.9351 18.4085 10.3034 18.5037 9.60556C18.7025 8.14925 17.6831 6.80755 16.2268 6.60876C15.5285 6.51143 14.8203 6.697 14.2595 7.12421L11.6055 8.83334C11.5648 8.86408 11.5381 8.90996 11.5315 8.96059C11.518 9.06471 11.5914 9.16007 11.6955 9.17361L11.7709 9.18384C12.1843 9.23852 12.583 9.37351 12.9446 9.58118C13.0112 9.61979 13.0945 9.61442 13.1556 9.56764L15.1786 8.33681C15.6802 7.95519 16.3962 8.05246 16.7778 8.55406C17.1594 9.05567 17.0622 9.77166 16.5606 10.1533L13.8286 12.23C13.3275 12.6108 12.6127 12.5137 12.2313 12.013C11.9719 11.6927 11.5081 11.6297 11.1727 11.8692C11.0274 11.9799 10.9267 12.1392 10.8892 12.318C10.8461 12.5319 10.897 12.754 11.0289 12.9278Z" fill="white"/>
</svg>
