<svg width="25" height="32" viewBox="0 0 11 15" fill="none" xmlns="http://www.w3.org/2000/svg">
<g clip-path="url(#clip0_2059_983)">
<path d="M5.09544 0C2.2844 0 0 2.32015 0 5.17506C0 6.14106 0.263321 7.08124 0.764342 7.89199L4.75001 14.5165C4.81803 14.6286 4.91991 14.6976 5.03885 14.7149C5.20015 14.7407 5.37857 14.6717 5.47197 14.5079L9.46904 7.82296C9.94457 7.02949 10.1909 6.10659 10.1909 5.17506C10.1909 2.32015 7.90647 0 5.09544 0ZM5.09544 7.76259C3.66877 7.76259 2.54772 6.58956 2.54772 5.17506C2.54772 3.75188 3.69415 2.58753 5.09544 2.58753C6.4967 2.58753 7.64316 3.75188 7.64316 5.17506C7.64316 6.58093 6.53911 7.76259 5.09544 7.76259Z" fill="#32BA40"/>
<path d="M8.72596 5.08409C8.72596 3.07276 7.09546 1.44226 5.08414 1.44226C3.07281 1.44226 1.44231 3.07276 1.44231 5.08409C1.44231 7.09541 3.07281 8.72591 5.08414 8.72591C7.09546 8.72591 8.72596 7.09541 8.72596 5.08409Z" fill="white"/>
<path d="M6.56172 4.22065L5.93463 3.64537C5.87585 3.59143 5.77788 3.59143 5.71907 3.64537C5.66028 3.69929 5.66028 3.78917 5.71907 3.84311L6.03262 4.13077C5.83667 4.20268 5.67989 4.40045 5.71907 4.61616C5.75827 4.81393 5.93463 4.97573 6.1502 4.9937C6.24819 5.0117 6.32657 4.9937 6.40497 4.95776V6.25217C6.40497 6.34206 6.30698 6.43194 6.20899 6.43194C6.111 6.43194 6.01304 6.34206 6.01304 6.25217V5.44315C6.01304 5.24541 5.83667 5.08361 5.62111 5.08361H5.42513V3.82514C5.42513 3.62737 5.24876 3.46558 5.03319 3.46558H3.85742C3.64186 3.46558 3.46549 3.62737 3.46549 3.82514V6.52185C3.46549 6.61174 3.54387 6.70162 3.66144 6.70162H5.22917C5.34675 6.70162 5.42513 6.61174 5.42513 6.52185V5.35327H5.71907V6.2342C5.71907 6.46791 5.89546 6.68365 6.1502 6.70162C6.44414 6.7196 6.69891 6.52186 6.69891 6.25217V4.54425C6.7185 4.41842 6.65971 4.31054 6.56172 4.22065ZM6.22858 4.72405C6.13062 4.72405 6.03262 4.65213 6.03262 4.54425C6.03262 4.43639 6.13062 4.36448 6.22858 4.36448C6.32657 4.36448 6.42456 4.43639 6.42456 4.54425C6.42456 4.65213 6.32657 4.72405 6.22858 4.72405ZM4.26894 5.82069V5.35327H4.03379C3.95538 5.35327 3.91621 5.28136 3.95538 5.22744L4.48451 4.32854C4.5041 4.23862 4.64126 4.2746 4.64126 4.36448V4.90382H4.85683C4.93523 4.90382 4.9744 4.97573 4.93523 5.04764L4.42572 5.87463C4.38652 5.94655 4.24936 5.91061 4.26894 5.82069Z" fill="#00671D"/>
</g>
<defs>
<clipPath id="clip0_2059_983">
<rect width="10.3846" height="15" fill="white"/>
</clipPath>
</defs>
</svg>
