<svg width="36" height="52" viewBox="0 0 36 52" fill="none" xmlns="http://www.w3.org/2000/svg">
<path d="M17.6642 0C7.91924 0 0 8.04318 0 17.9402C0 21.289 0.912845 24.5483 2.64972 27.3589L16.4667 50.3237C16.7025 50.7124 17.0557 50.9517 17.468 51.0115C18.0272 51.1011 18.6457 50.862 18.9695 50.2939L32.826 27.1196C34.4745 24.3689 35.3284 21.1695 35.3284 17.9402C35.3284 8.04318 27.4091 0 17.6642 0ZM17.6642 26.9103C12.7184 26.9103 8.83209 22.8438 8.83209 17.9402C8.83209 13.0065 12.8064 8.97009 17.6642 8.97009C22.5219 8.97009 26.4963 13.0065 26.4963 17.9402C26.4963 22.8139 22.6689 26.9103 17.6642 26.9103Z" fill="#32BA40"/>
<rect x="5" y="5" width="25.25" height="25.25" rx="12.625" fill="white"/>
<path d="M22.7473 14.6315L20.5734 12.6372C20.3696 12.4502 20.03 12.4502 19.8261 12.6372C19.6223 12.8241 19.6223 13.1357 19.8261 13.3227L20.9131 14.3199C20.2338 14.5692 19.6903 15.2548 19.8261 16.0026C19.962 16.6882 20.5734 17.2491 21.3207 17.3114C21.6604 17.3738 21.9321 17.3114 22.2039 17.1868V21.6741C22.2039 21.9857 21.8642 22.2973 21.5245 22.2973C21.1848 22.2973 20.8452 21.9857 20.8452 21.6741V18.8695C20.8452 18.184 20.2338 17.6231 19.4865 17.6231H18.8071V13.2604C18.8071 12.5748 18.1957 12.0139 17.4484 12.0139H13.3724C12.6251 12.0139 12.0137 12.5748 12.0137 13.2604V22.609C12.0137 22.9206 12.2854 23.2322 12.693 23.2322H18.1278C18.5354 23.2322 18.8071 22.9206 18.8071 22.609V18.5579H19.8261V21.6118C19.8261 22.422 20.4376 23.1699 21.3207 23.2322C22.3397 23.2945 23.2229 22.609 23.2229 21.6741V15.7533C23.2908 15.3171 23.087 14.9431 22.7473 14.6315ZM21.5924 16.3766C21.2528 16.3766 20.9131 16.1273 20.9131 15.7533C20.9131 15.3794 21.2528 15.1301 21.5924 15.1301C21.9321 15.1301 22.2718 15.3794 22.2718 15.7533C22.2718 16.1273 21.9321 16.3766 21.5924 16.3766ZM14.799 20.1783V18.5579H13.9838C13.712 18.5579 13.5762 18.3086 13.712 18.1217L15.5463 15.0055C15.6142 14.6938 16.0897 14.8185 16.0897 15.1301V16.9998H16.837C17.1088 16.9998 17.2446 17.2491 17.1088 17.4984L15.3425 20.3653C15.2066 20.6146 14.7311 20.49 14.799 20.1783Z" fill="#00671D"/>
</svg>
