<svg width="16" height="16" viewBox="0 0 16 16" fill="none" xmlns="http://www.w3.org/2000/svg">
<g clip-path="url(#clip0_428_44)">
<path d="M8 0C3.58685 0 0 3.58685 0 8C0 12.4131 3.58685 16 8 16C12.4131 16 16 12.4131 16 8C16 3.58685 12.4131 0 8 0ZM8 15.1925C4.03756 15.1925 0.807512 11.9624 0.807512 8C0.807512 4.03756 4.03756 0.807512 8 0.807512C11.9624 0.807512 15.1925 4.03756 15.1925 8C15.1925 11.9624 11.9624 15.1925 8 15.1925Z" fill="#215154"/>
<path d="M8.56339 7.96244L10.9108 5.61502C11.061 5.46479 11.061 5.20188 10.9108 5.05164C10.7606 4.90141 10.4977 4.90141 10.3474 5.05164L8.00001 7.39906L5.65259 5.05164C5.50235 4.90141 5.23944 4.90141 5.08921 5.05164C4.93897 5.20188 4.93897 5.46479 5.08921 5.61502L7.43663 7.96244L5.08921 10.2911C4.93897 10.4413 4.93897 10.7042 5.08921 10.8545C5.16433 10.9296 5.277 10.9671 5.3709 10.9671C5.46479 10.9671 5.57747 10.9296 5.65259 10.8545L8.00001 8.50704L10.3474 10.8545C10.4225 10.9296 10.5352 10.9671 10.6291 10.9671C10.723 10.9671 10.8357 10.9296 10.9108 10.8545C11.061 10.7042 11.061 10.4413 10.9108 10.2911L8.56339 7.96244Z" fill="#215154"/>
</g>
<defs>
<clipPath id="clip0_428_44">
<rect width="16" height="16" fill="white"/>
</clipPath>
</defs>
</svg>
