<svg width="10" height="13" viewBox="0 0 10 13" fill="none" xmlns="http://www.w3.org/2000/svg">
<path d="M9.03335 8.86C8.97137 8.79751 8.89764 8.74792 8.8164 8.71407C8.73516 8.68023 8.64802 8.6628 8.56001 8.6628C8.47201 8.6628 8.38487 8.68023 8.30363 8.71407C8.22239 8.74792 8.14866 8.79751 8.08668 8.86L5.66668 11.28V0.666667C5.66668 0.489856 5.59644 0.320286 5.47142 0.195262C5.34639 0.0702377 5.17682 0 5.00001 0C4.8232 0 4.65363 0.0702377 4.52861 0.195262C4.40359 0.320286 4.33335 0.489856 4.33335 0.666667V11.2733L1.92001 8.86C1.86287 8.78187 1.7894 8.71712 1.70471 8.67025C1.62002 8.62338 1.52614 8.59552 1.42959 8.5886C1.33304 8.58167 1.23615 8.59586 1.14563 8.63016C1.05512 8.66447 0.973166 8.71807 0.905462 8.78725C0.837757 8.85642 0.785928 8.93951 0.753577 9.03074C0.721226 9.12197 0.709129 9.21915 0.718127 9.31553C0.727125 9.4119 0.757002 9.50516 0.805681 9.58883C0.85436 9.67249 0.920674 9.74455 1.00001 9.8L3.61335 12.4133C3.98835 12.7879 4.49668 12.9982 5.02668 12.9982C5.55668 12.9982 6.06501 12.7879 6.44001 12.4133L9.05335 9.8C9.17489 9.67247 9.24102 9.50201 9.23727 9.32587C9.23352 9.14974 9.16021 8.98225 9.03335 8.86Z" fill="black"/>
</svg>
