<svg width="12" height="12" viewBox="0 0 12 12" fill="none" xmlns="http://www.w3.org/2000/svg">
<g clip-path="url(#clip0_250_62)">
<path d="M11 5.5C10.8674 5.5 10.7402 5.55268 10.6464 5.64645C10.5527 5.74021 10.5 5.86739 10.5 6V9C10.5 9.39782 10.342 9.77936 10.0607 10.0607C9.77936 10.342 9.39782 10.5 9 10.5H3C2.60218 10.5 2.22064 10.342 1.93934 10.0607C1.65804 9.77936 1.5 9.39782 1.5 9V3C1.5 2.60218 1.65804 2.22064 1.93934 1.93934C2.22064 1.65804 2.60218 1.5 3 1.5H6C6.13261 1.5 6.25979 1.44732 6.35355 1.35355C6.44732 1.25979 6.5 1.13261 6.5 1C6.5 0.867392 6.44732 0.740215 6.35355 0.646447C6.25979 0.552678 6.13261 0.5 6 0.5H3C2.6717 0.5 2.34661 0.564664 2.04329 0.690301C1.73998 0.815938 1.46438 1.00009 1.23223 1.23223C0.763392 1.70107 0.5 2.33696 0.5 3V9C0.5 9.3283 0.564664 9.65339 0.690301 9.95671C0.815938 10.26 1.00009 10.5356 1.23223 10.7678C1.70107 11.2366 2.33696 11.5 3 11.5H9C9.3283 11.5 9.65339 11.4353 9.95671 11.3097C10.26 11.1841 10.5356 10.9999 10.7678 10.7678C10.9999 10.5356 11.1841 10.26 11.3097 9.95671C11.4353 9.65339 11.5 9.3283 11.5 9V6C11.5 5.86739 11.4473 5.74021 11.3536 5.64645C11.2598 5.55268 11.1326 5.5 11 5.5Z" fill="#215154"/>
<path d="M3.94 5.22996C3.80008 5.36971 3.68917 5.53575 3.61366 5.71853C3.53815 5.9013 3.49952 6.0972 3.5 6.29496V6.99996C3.5 7.39779 3.65804 7.77932 3.93934 8.06062C4.22065 8.34193 4.60218 8.49996 5 8.49996H5.705C5.90276 8.50045 6.09867 8.46182 6.28144 8.38631C6.46422 8.3108 6.63025 8.19989 6.77 8.05996L11.06 3.76996C11.1998 3.63061 11.3108 3.46502 11.3865 3.28269C11.4622 3.10036 11.5012 2.90488 11.5012 2.70746C11.5012 2.51004 11.4622 2.31456 11.3865 2.13223C11.3108 1.94991 11.1998 1.78432 11.06 1.64496L10.355 0.939962C10.2156 0.800122 10.0501 0.689167 9.86773 0.613459C9.6854 0.537751 9.48992 0.498779 9.2925 0.498779C9.09508 0.498779 8.8996 0.537751 8.71728 0.613459C8.53495 0.689167 8.36936 0.800122 8.23 0.939962L3.94 5.22996ZM9.645 1.64496L10.355 2.35496C10.4481 2.44864 10.5004 2.57537 10.5004 2.70746C10.5004 2.83956 10.4481 2.96628 10.355 3.05996L9.925 3.49996L8.5 2.07496L8.93 1.64496C8.97657 1.59734 9.03218 1.5595 9.09357 1.53367C9.15496 1.50783 9.2209 1.49452 9.2875 1.49452C9.35411 1.49452 9.42004 1.50783 9.48144 1.53367C9.54283 1.5595 9.59844 1.59734 9.645 1.64496ZM4.5 6.29496C4.49962 6.22916 4.51224 6.16393 4.53712 6.10301C4.562 6.04209 4.59866 5.98668 4.645 5.93996L7.8 2.78496L9.215 4.19996L6.06 7.35496C6.01328 7.4013 5.95788 7.43797 5.89696 7.46285C5.83604 7.48773 5.77081 7.50034 5.705 7.49996H5C4.8674 7.49996 4.74022 7.44728 4.64645 7.35352C4.55268 7.25975 4.5 7.13257 4.5 6.99996V6.29496Z" fill="#215154"/>
</g>
<defs>
<clipPath id="clip0_250_62">
<rect width="12" height="12" fill="white"/>
</clipPath>
</defs>
</svg>
