<svg width="58" height="44" viewBox="0 0 58 44" fill="none" xmlns="http://www.w3.org/2000/svg">
<path d="M12.3633 10.7344V16.1641C12.1615 16.431 11.8457 16.724 11.416 17.043C10.9928 17.3555 10.4297 17.6257 9.72656 17.8535C9.02344 18.0814 8.14779 18.1953 7.09961 18.1953C6.20768 18.1953 5.39062 18.0456 4.64844 17.7461C3.90625 17.4401 3.26497 16.9941 2.72461 16.4082C2.19076 15.8223 1.77734 15.1094 1.48438 14.2695C1.19141 13.4232 1.04492 12.4596 1.04492 11.3789V10.3926C1.04492 9.31836 1.17839 8.36133 1.44531 7.52148C1.71875 6.67513 2.10938 5.95898 2.61719 5.37305C3.125 4.78711 3.73698 4.3444 4.45312 4.04492C5.17578 3.73893 5.99284 3.58594 6.9043 3.58594C8.06966 3.58594 9.0332 3.78125 9.79492 4.17188C10.5632 4.55599 11.1556 5.08984 11.5723 5.77344C11.9889 6.45703 12.2526 7.23828 12.3633 8.11719H9.96094C9.88281 7.6224 9.72982 7.17969 9.50195 6.78906C9.2806 6.39844 8.96159 6.09245 8.54492 5.87109C8.13477 5.64323 7.60091 5.5293 6.94336 5.5293C6.37695 5.5293 5.87891 5.63672 5.44922 5.85156C5.01953 6.06641 4.66146 6.38216 4.375 6.79883C4.09505 7.21549 3.88346 7.72331 3.74023 8.32227C3.59701 8.92122 3.52539 9.60482 3.52539 10.373V11.3789C3.52539 12.1602 3.60677 12.8535 3.76953 13.459C3.9388 14.0645 4.17969 14.5755 4.49219 14.9922C4.8112 15.4089 5.19857 15.7246 5.6543 15.9395C6.11003 16.1478 6.62435 16.252 7.19727 16.252C7.75716 16.252 8.21615 16.2064 8.57422 16.1152C8.93229 16.0176 9.21549 15.9036 9.42383 15.7734C9.63867 15.6367 9.80469 15.5065 9.92188 15.3828V12.5605H6.96289V10.7344H12.3633ZM17.207 9.44531V18H14.8535V7.43359H17.0996L17.207 9.44531ZM20.4395 7.36523L20.4199 9.55273C20.2767 9.52669 20.1204 9.50716 19.9512 9.49414C19.7884 9.48112 19.6257 9.47461 19.4629 9.47461C19.0592 9.47461 18.7044 9.5332 18.3984 9.65039C18.0924 9.76107 17.8353 9.92383 17.627 10.1387C17.4251 10.347 17.2689 10.6009 17.1582 10.9004C17.0475 11.1999 16.9824 11.5352 16.9629 11.9062L16.4258 11.9453C16.4258 11.2812 16.4909 10.666 16.6211 10.0996C16.7513 9.5332 16.9466 9.03516 17.207 8.60547C17.474 8.17578 17.806 7.84049 18.2031 7.59961C18.6068 7.35872 19.0723 7.23828 19.5996 7.23828C19.7428 7.23828 19.8958 7.2513 20.0586 7.27734C20.2279 7.30339 20.3548 7.33268 20.4395 7.36523ZM26.377 18.1953C25.5957 18.1953 24.8893 18.0684 24.2578 17.8145C23.6328 17.554 23.099 17.1927 22.6562 16.7305C22.2201 16.2682 21.8848 15.7246 21.6504 15.0996C21.416 14.4746 21.2988 13.8008 21.2988 13.0781V12.6875C21.2988 11.8607 21.4193 11.112 21.6602 10.4414C21.901 9.77083 22.2363 9.19792 22.666 8.72266C23.0957 8.24089 23.6035 7.87305 24.1895 7.61914C24.7754 7.36523 25.4102 7.23828 26.0938 7.23828C26.849 7.23828 27.5098 7.36523 28.0762 7.61914C28.6426 7.87305 29.1113 8.23112 29.4824 8.69336C29.86 9.14909 30.14 9.69271 30.3223 10.3242C30.5111 10.9557 30.6055 11.6523 30.6055 12.4141V13.4199H22.4414V11.7305H28.2812V11.5449C28.2682 11.1217 28.1836 10.7246 28.0273 10.3535C27.8776 9.98242 27.6465 9.68294 27.334 9.45508C27.0215 9.22721 26.6048 9.11328 26.084 9.11328C25.6934 9.11328 25.3451 9.19792 25.0391 9.36719C24.7396 9.52995 24.4889 9.76758 24.2871 10.0801C24.0853 10.3926 23.929 10.7702 23.8184 11.2129C23.7142 11.6491 23.6621 12.1406 23.6621 12.6875V13.0781C23.6621 13.5404 23.724 13.9701 23.8477 14.3672C23.9779 14.7578 24.1667 15.0996 24.4141 15.3926C24.6615 15.6855 24.9609 15.9167 25.3125 16.0859C25.6641 16.2487 26.0645 16.3301 26.5137 16.3301C27.0801 16.3301 27.5846 16.2161 28.0273 15.9883C28.4701 15.7604 28.8542 15.4382 29.1797 15.0215L30.4199 16.2227C30.1921 16.5547 29.8958 16.8737 29.5312 17.1797C29.1667 17.4792 28.7207 17.7233 28.1934 17.9121C27.6725 18.1009 27.0671 18.1953 26.377 18.1953ZM37.0996 18.1953C36.3184 18.1953 35.612 18.0684 34.9805 17.8145C34.3555 17.554 33.8216 17.1927 33.3789 16.7305C32.9427 16.2682 32.6074 15.7246 32.373 15.0996C32.1387 14.4746 32.0215 13.8008 32.0215 13.0781V12.6875C32.0215 11.8607 32.1419 11.112 32.3828 10.4414C32.6237 9.77083 32.959 9.19792 33.3887 8.72266C33.8184 8.24089 34.3262 7.87305 34.9121 7.61914C35.498 7.36523 36.1328 7.23828 36.8164 7.23828C37.5716 7.23828 38.2324 7.36523 38.7988 7.61914C39.3652 7.87305 39.834 8.23112 40.2051 8.69336C40.5827 9.14909 40.8626 9.69271 41.0449 10.3242C41.2337 10.9557 41.3281 11.6523 41.3281 12.4141V13.4199H33.1641V11.7305H39.0039V11.5449C38.9909 11.1217 38.9062 10.7246 38.75 10.3535C38.6003 9.98242 38.3691 9.68294 38.0566 9.45508C37.7441 9.22721 37.3275 9.11328 36.8066 9.11328C36.416 9.11328 36.0677 9.19792 35.7617 9.36719C35.4622 9.52995 35.2116 9.76758 35.0098 10.0801C34.8079 10.3926 34.6517 10.7702 34.541 11.2129C34.4368 11.6491 34.3848 12.1406 34.3848 12.6875V13.0781C34.3848 13.5404 34.4466 13.9701 34.5703 14.3672C34.7005 14.7578 34.8893 15.0996 35.1367 15.3926C35.3841 15.6855 35.6836 15.9167 36.0352 16.0859C36.3867 16.2487 36.7871 16.3301 37.2363 16.3301C37.8027 16.3301 38.3073 16.2161 38.75 15.9883C39.1927 15.7604 39.5768 15.4382 39.9023 15.0215L41.1426 16.2227C40.9147 16.5547 40.6185 16.8737 40.2539 17.1797C39.8893 17.4792 39.4434 17.7233 38.916 17.9121C38.3952 18.1009 37.7897 18.1953 37.0996 18.1953ZM45.498 9.68945V18H43.1445V7.43359H45.3613L45.498 9.68945ZM45.0781 12.3262L44.3164 12.3164C44.3229 11.5677 44.4271 10.8809 44.6289 10.2559C44.8372 9.63086 45.1237 9.09375 45.4883 8.64453C45.8594 8.19531 46.3021 7.85026 46.8164 7.60938C47.3307 7.36198 47.9036 7.23828 48.5352 7.23828C49.043 7.23828 49.502 7.3099 49.9121 7.45312C50.3288 7.58984 50.6836 7.81445 50.9766 8.12695C51.276 8.43945 51.5039 8.84635 51.6602 9.34766C51.8164 9.84245 51.8945 10.4512 51.8945 11.1738V18H49.5312V11.1641C49.5312 10.6562 49.4564 10.2559 49.3066 9.96289C49.1634 9.66341 48.9518 9.45182 48.6719 9.32812C48.3984 9.19792 48.0566 9.13281 47.6465 9.13281C47.2428 9.13281 46.8815 9.21745 46.5625 9.38672C46.2435 9.55599 45.9733 9.78711 45.752 10.0801C45.5371 10.373 45.3711 10.7116 45.2539 11.0957C45.1367 11.4798 45.0781 11.89 45.0781 12.3262Z" fill="#215154"/>
<path d="M19.9258 34.3379C19.9258 34.0449 19.8802 33.7845 19.7891 33.5566C19.7044 33.3288 19.5514 33.1204 19.3301 32.9316C19.1087 32.7428 18.7962 32.5605 18.3926 32.3848C17.9954 32.2025 17.4876 32.0169 16.8691 31.8281C16.1921 31.6198 15.5671 31.3887 14.9941 31.1348C14.4277 30.8743 13.9329 30.5749 13.5098 30.2363C13.0866 29.8913 12.7578 29.4974 12.5234 29.0547C12.2891 28.6055 12.1719 28.0879 12.1719 27.502C12.1719 26.9225 12.2923 26.3952 12.5332 25.9199C12.7806 25.4447 13.1289 25.0345 13.5781 24.6895C14.0339 24.3379 14.571 24.0677 15.1895 23.8789C15.8079 23.6836 16.4915 23.5859 17.2402 23.5859C18.2949 23.5859 19.2031 23.7812 19.9648 24.1719C20.7331 24.5625 21.3223 25.0866 21.7324 25.7441C22.1491 26.4017 22.3574 27.1276 22.3574 27.9219H19.9258C19.9258 27.4531 19.8249 27.0397 19.623 26.6816C19.4277 26.3171 19.1283 26.0306 18.7246 25.8223C18.3275 25.6139 17.8229 25.5098 17.2109 25.5098C16.6315 25.5098 16.1497 25.5977 15.7656 25.7734C15.3815 25.9492 15.0951 26.1868 14.9062 26.4863C14.7174 26.7858 14.623 27.1243 14.623 27.502C14.623 27.7689 14.6849 28.013 14.8086 28.2344C14.9323 28.4492 15.1211 28.651 15.375 28.8398C15.6289 29.0221 15.9479 29.1947 16.332 29.3574C16.7161 29.5202 17.1686 29.6764 17.6895 29.8262C18.4772 30.0605 19.1641 30.321 19.75 30.6074C20.3359 30.8874 20.8242 31.2064 21.2148 31.5645C21.6055 31.9225 21.8984 32.3294 22.0938 32.7852C22.2891 33.2344 22.3867 33.7454 22.3867 34.3184C22.3867 34.9173 22.2663 35.4577 22.0254 35.9395C21.7845 36.4147 21.4395 36.8216 20.9902 37.1602C20.5475 37.4922 20.0137 37.7493 19.3887 37.9316C18.7702 38.1074 18.0801 38.1953 17.3184 38.1953C16.6348 38.1953 15.9609 38.1042 15.2969 37.9219C14.6393 37.7396 14.0404 37.4629 13.5 37.0918C12.9596 36.7142 12.5299 36.2454 12.2109 35.6855C11.8919 35.1191 11.7324 34.4583 11.7324 33.7031H14.1836C14.1836 34.1654 14.2617 34.5592 14.418 34.8848C14.5807 35.2103 14.8053 35.4772 15.0918 35.6855C15.3783 35.8874 15.7103 36.0371 16.0879 36.1348C16.472 36.2324 16.8822 36.2812 17.3184 36.2812C17.8913 36.2812 18.3698 36.1999 18.7539 36.0371C19.1445 35.8743 19.4375 35.6465 19.6328 35.3535C19.8281 35.0605 19.9258 34.722 19.9258 34.3379ZM26.8398 27.4336V38H24.4766V27.4336H26.8398ZM24.3203 24.6602C24.3203 24.3021 24.4375 24.0059 24.6719 23.7715C24.9128 23.5306 25.2448 23.4102 25.668 23.4102C26.0846 23.4102 26.4134 23.5306 26.6543 23.7715C26.8952 24.0059 27.0156 24.3021 27.0156 24.6602C27.0156 25.0117 26.8952 25.3047 26.6543 25.5391C26.4134 25.7734 26.0846 25.8906 25.668 25.8906C25.2448 25.8906 24.9128 25.7734 24.6719 25.5391C24.4375 25.3047 24.3203 25.0117 24.3203 24.6602ZM36.1855 27.4336H38.3242V37.707C38.3242 38.6576 38.1224 39.4648 37.7188 40.1289C37.3151 40.793 36.752 41.2975 36.0293 41.6426C35.3066 41.9941 34.4701 42.1699 33.5195 42.1699C33.1159 42.1699 32.6667 42.1113 32.1719 41.9941C31.6836 41.877 31.2083 41.6882 30.7461 41.4277C30.2904 41.1738 29.9095 40.8385 29.6035 40.4219L30.707 39.0352C31.0846 39.4844 31.5013 39.8132 31.957 40.0215C32.4128 40.2298 32.8913 40.334 33.3926 40.334C33.9329 40.334 34.3919 40.2331 34.7695 40.0312C35.1536 39.8359 35.4499 39.5462 35.6582 39.1621C35.8665 38.778 35.9707 38.3092 35.9707 37.7559V29.8262L36.1855 27.4336ZM29.0078 32.834V32.6289C29.0078 31.8281 29.1055 31.099 29.3008 30.4414C29.4961 29.7773 29.776 29.2077 30.1406 28.7324C30.5052 28.2507 30.9479 27.8828 31.4688 27.6289C31.9896 27.3685 32.5788 27.2383 33.2363 27.2383C33.9199 27.2383 34.5026 27.362 34.9844 27.6094C35.4727 27.8568 35.8796 28.2116 36.2051 28.6738C36.5306 29.1296 36.7845 29.6764 36.9668 30.3145C37.1556 30.946 37.2956 31.6491 37.3867 32.4238V33.0781C37.3021 33.8333 37.1589 34.5234 36.957 35.1484C36.7552 35.7734 36.4883 36.3138 36.1562 36.7695C35.8242 37.2253 35.4141 37.5768 34.9258 37.8242C34.444 38.0716 33.8743 38.1953 33.2168 38.1953C32.5723 38.1953 31.9896 38.0618 31.4688 37.7949C30.9544 37.528 30.5117 37.1536 30.1406 36.6719C29.776 36.1901 29.4961 35.6237 29.3008 34.9727C29.1055 34.3151 29.0078 33.6022 29.0078 32.834ZM31.3613 32.6289V32.834C31.3613 33.3158 31.4069 33.765 31.498 34.1816C31.5957 34.5983 31.7422 34.9661 31.9375 35.2852C32.1393 35.5977 32.3932 35.8451 32.6992 36.0273C33.0117 36.2031 33.3796 36.291 33.8027 36.291C34.3561 36.291 34.8086 36.1738 35.1602 35.9395C35.5182 35.7051 35.7917 35.3893 35.9805 34.9922C36.1758 34.5885 36.3125 34.1393 36.3906 33.6445V31.877C36.3516 31.4928 36.2702 31.1348 36.1465 30.8027C36.0293 30.4707 35.8698 30.181 35.668 29.9336C35.4661 29.6797 35.2122 29.4844 34.9062 29.3477C34.6003 29.2044 34.2389 29.1328 33.8223 29.1328C33.3991 29.1328 33.0312 29.224 32.7188 29.4062C32.4062 29.5885 32.1491 29.8392 31.9473 30.1582C31.752 30.4772 31.6055 30.8483 31.5078 31.2715C31.4102 31.6947 31.3613 32.1471 31.3613 32.6289ZM43.0898 23V38H40.7461V23H43.0898ZM42.6797 32.3262L41.918 32.3164C41.9245 31.5872 42.0254 30.9134 42.2207 30.2949C42.4225 29.6764 42.7025 29.1393 43.0605 28.6836C43.4251 28.2214 43.8613 27.8665 44.3691 27.6191C44.877 27.3652 45.4401 27.2383 46.0586 27.2383C46.5794 27.2383 47.0482 27.3099 47.4648 27.4531C47.888 27.5964 48.2526 27.8275 48.5586 28.1465C48.8646 28.459 49.0957 28.8691 49.252 29.377C49.4147 29.8783 49.4961 30.4902 49.4961 31.2129V38H47.1328V31.1934C47.1328 30.6855 47.0579 30.2819 46.9082 29.9824C46.765 29.6829 46.5534 29.4681 46.2734 29.3379C45.9935 29.2012 45.6517 29.1328 45.248 29.1328C44.8249 29.1328 44.4505 29.2174 44.125 29.3867C43.806 29.556 43.5391 29.7871 43.3242 30.0801C43.1094 30.373 42.9466 30.7116 42.8359 31.0957C42.7318 31.4798 42.6797 31.89 42.6797 32.3262ZM56.7227 27.4336V29.1523H50.7656V27.4336H56.7227ZM52.4844 24.8457H54.8379V35.0801C54.8379 35.4056 54.8835 35.6562 54.9746 35.832C55.0723 36.0013 55.2057 36.1152 55.375 36.1738C55.5443 36.2324 55.7428 36.2617 55.9707 36.2617C56.1335 36.2617 56.2897 36.252 56.4395 36.2324C56.5892 36.2129 56.7096 36.1934 56.8008 36.1738L56.8105 37.9707C56.6152 38.0293 56.3874 38.0814 56.127 38.127C55.873 38.1725 55.5801 38.1953 55.248 38.1953C54.7077 38.1953 54.2292 38.1009 53.8125 37.9121C53.3958 37.7168 53.0703 37.401 52.8359 36.9648C52.6016 36.5286 52.4844 35.9492 52.4844 35.2266V24.8457Z" fill="#215154"/>
<rect x="40" y="42" width="17" height="2" fill="#215154"/>
</svg>
