<svg width="16" height="16" viewBox="0 0 16 16" fill="none" xmlns="http://www.w3.org/2000/svg">
<g clip-path="url(#clip0_116_1044)">
<path d="M12.6667 15.9998H3.33333C1.49533 15.9998 0 14.5045 0 12.6665V6.48249C0 5.37249 0.549333 4.33916 1.46933 3.71916L6.13533 0.569826C7.268 -0.194174 8.732 -0.194174 9.86467 0.569826L14.5313 3.71916C15.4507 4.33916 16 5.37183 16 6.48249V12.6665C16 14.5045 14.5047 15.9998 12.6667 15.9998ZM8 1.33116C7.61067 1.33116 7.22133 1.44583 6.88133 1.67583L2.21467 4.82449C1.66267 5.19649 1.33333 5.81583 1.33333 6.48183V12.6658C1.33333 13.7685 2.23067 14.6658 3.33333 14.6658H12.6667C13.7693 14.6658 14.6667 13.7685 14.6667 12.6658V6.48249C14.6667 5.81649 14.3373 5.19649 13.786 4.82516L9.11867 1.67583C8.77867 1.44583 8.38933 1.33116 8 1.33116Z" fill="#215154"/>
<rect x="7" y="10" width="2" height="4" rx="1" fill="#215154"/>
</g>
<defs>
<clipPath id="clip0_116_1044">
<rect width="16" height="16" fill="white"/>
</clipPath>
</defs>
</svg>
