<svg width="18" height="16" viewBox="0 0 18 16" fill="none" xmlns="http://www.w3.org/2000/svg">
<path d="M5.14938 3.54772V2.06961C5.14938 1.48133 5.63071 1 6.21899 1H11.781C12.3693 1 12.8506 1.48133 12.8506 2.06961V3.54772" stroke="#215154" stroke-miterlimit="22.9256" stroke-linecap="round" stroke-linejoin="round"/>
<path d="M16.3361 8.32776V13.9958C16.3361 14.5434 15.8879 14.9917 15.3403 14.9917H2.65976C2.11214 14.9917 1.66391 14.5435 1.66391 13.9958V8.36095" stroke="#215154" stroke-miterlimit="22.9256" stroke-linecap="round" stroke-linejoin="round"/>
<path d="M7.6722 10.0042C4.16053 9.80339 1 8.7992 1 6.99164V4.63489C1 4.08641 1.44734 3.63904 1.99585 3.63904H16.0042C16.5526 3.63904 17 4.08644 17 4.63489V6.99164C17 8.81052 13.7995 9.81593 10.2614 10.0079" stroke="#215154" stroke-miterlimit="22.9256" stroke-linecap="round" stroke-linejoin="round"/>
<path fill-rule="evenodd" clip-rule="evenodd" d="M7.77179 9.0166H10.2282V10.1618C10.2282 10.7917 9.71287 11.3071 9.08299 11.3071H8.91702C8.28714 11.3071 7.77179 10.7917 7.77179 10.1618V9.0166Z" stroke="#215154" stroke-miterlimit="22.9256" stroke-linecap="round" stroke-linejoin="round"/>
</svg>
