<svg width="16" height="16" viewBox="0 0 16 16" fill="none" xmlns="http://www.w3.org/2000/svg">
<g clip-path="url(#clip0_1_2)">
<path d="M12.6667 15.9998H3.33333C1.49533 15.9998 0 14.5045 0 12.6665V6.48251C0 5.37251 0.549333 4.33917 1.46933 3.71917L6.13533 0.569841C7.268 -0.194159 8.732 -0.194159 9.86467 0.569841L14.5313 3.71917C15.4507 4.33917 16 5.37184 16 6.48251V12.6665C16 14.5045 14.5047 15.9998 12.6667 15.9998ZM8 1.33117C7.61067 1.33117 7.22133 1.44584 6.88133 1.67584L2.21467 4.82451C1.66267 5.19651 1.33333 5.81584 1.33333 6.48184V12.6658C1.33333 13.7685 2.23067 14.6658 3.33333 14.6658H12.6667C13.7693 14.6658 14.6667 13.7685 14.6667 12.6658V6.48251C14.6667 5.81651 14.3373 5.19651 13.786 4.82517L9.11867 1.67584C8.77867 1.44584 8.38933 1.33117 8 1.33117V1.33117Z" fill="white"/>
<rect x="7" y="10" width="2" height="4" rx="1" fill="white"/>
</g>
<defs>
<clipPath id="clip0_1_2">
<rect width="16" height="16" fill="white"/>
</clipPath>
</defs>
</svg>
