<svg width="16" height="16" viewBox="0 0 16 16" fill="none" xmlns="http://www.w3.org/2000/svg">
<g clip-path="url(#clip0_116_1052)">
<path d="M7.35934 14.6667V16H8.69269V14.6667H15.2713L12.16 10H13.938L11.2713 6.00005H12.7333C12.7333 6.00005 10.1593 1.89583 9.23069 0.575391C9.21069 0.546954 9.16734 0.492485 9.14403 0.466735C8.60237 -0.131796 7.40628 -0.175077 6.90737 0.466735L3.29734 6.00005H4.78L2.11334 10H3.89069L0.779999 14.6667H7.35934ZM4.60466 8.6667L7.27131 4.6667H5.75331L7.89131 1.37536C7.96722 1.30745 8.08206 1.30745 8.15797 1.37536L10.284 4.6667H8.78L11.4467 8.6667H9.66666L12.778 13.3334H3.27134L6.38269 8.6667H4.60466Z" fill="#215154"/>
<path d="M6.69199 12.0001C7.06017 12.0001 7.35864 11.7016 7.35864 11.3334C7.35864 10.9652 7.06017 10.6667 6.69199 10.6667C6.3238 10.6667 6.02533 10.9652 6.02533 11.3334C6.02533 11.7016 6.3238 12.0001 6.69199 12.0001Z" fill="#215154"/>
<path d="M9.35864 12.6667C9.72683 12.6667 10.0253 12.3682 10.0253 12C10.0253 11.6318 9.72683 11.3334 9.35864 11.3334C8.99046 11.3334 8.69199 11.6318 8.69199 12C8.69199 12.3682 8.99046 12.6667 9.35864 12.6667Z" fill="#215154"/>
<path d="M8.02533 10.0001C8.39351 10.0001 8.69199 9.70159 8.69199 9.3334C8.69199 8.96522 8.39351 8.66675 8.02533 8.66675C7.65715 8.66675 7.35867 8.96522 7.35867 9.3334C7.35867 9.70159 7.65715 10.0001 8.02533 10.0001Z" fill="#215154"/>
<path d="M7.35864 7.33331C7.72683 7.33331 8.0253 7.03484 8.0253 6.66666C8.0253 6.29847 7.72683 6 7.35864 6C6.99046 6 6.69199 6.29847 6.69199 6.66666C6.69199 7.03484 6.99046 7.33331 7.35864 7.33331Z" fill="#215154"/>
</g>
<defs>
<clipPath id="clip0_116_1052">
<rect width="16" height="16" fill="white"/>
</clipPath>
</defs>
</svg>
