<svg width="16" height="16" viewBox="0 0 16 16" fill="none" xmlns="http://www.w3.org/2000/svg">
<path d="M6.33331 10C6.51012 10 6.67969 10.0702 6.80472 10.1953C6.92974 10.3203 6.99998 10.4899 6.99998 10.6667V12.6667C6.99998 13.1971 7.21069 13.7058 7.58576 14.0809C7.96084 14.456 8.46955 14.6667 8.99998 14.6667H10.6506C11.1811 14.6667 11.6898 14.456 12.0649 14.0809C12.4399 13.7058 12.6506 13.1971 12.6506 12.6667V3.33333C12.6506 2.8029 12.4399 2.29419 12.0649 1.91912C11.6898 1.54405 11.1811 1.33333 10.6506 1.33333H8.99998C8.46955 1.33333 7.96084 1.54405 7.58576 1.91912C7.21069 2.29419 6.99998 2.8029 6.99998 3.33333V5.33333C6.99998 5.51014 6.92974 5.67971 6.80472 5.80474C6.67969 5.92976 6.51012 6 6.33331 6C6.1565 6 5.98693 5.92976 5.86191 5.80474C5.73688 5.67971 5.66665 5.51014 5.66665 5.33333V3.33333C5.6677 2.4496 6.01923 1.60237 6.64412 0.97748C7.26902 0.352588 8.11625 0.00105857 8.99998 0H10.6506C11.5344 0.00105857 12.3816 0.352588 13.0065 0.97748C13.6314 1.60237 13.9829 2.4496 13.984 3.33333L13.984 12.6667C13.9829 13.5504 13.6314 14.3976 13.0065 15.0225C12.3816 15.6474 11.5344 15.9989 10.6506 16H8.99998C8.11625 15.9989 7.26902 15.6474 6.64412 15.0225C6.01923 14.3976 5.6677 13.5504 5.66665 12.6667V10.6667C5.66665 10.4899 5.73688 10.3203 5.86191 10.1953C5.98693 10.0702 6.1565 10 6.33331 10Z" fill="#215154"/>
<path d="M0.755322 6.58605L3.81266 3.52872C3.87415 3.46505 3.94772 3.41426 4.02905 3.37932C4.11039 3.34438 4.19787 3.32599 4.28639 3.32522C4.37491 3.32445 4.46269 3.34132 4.54463 3.37484C4.62656 3.40836 4.70099 3.45786 4.76359 3.52046C4.82618 3.58305 4.87568 3.65749 4.9092 3.73942C4.94272 3.82135 4.95959 3.90914 4.95882 3.99766C4.95805 4.08617 4.93966 4.17365 4.90472 4.25499C4.86978 4.33633 4.819 4.40989 4.75532 4.47139L1.91399 7.31339L12 7.33339C12.1768 7.33339 12.3464 7.40363 12.4714 7.52865C12.5964 7.65367 12.6667 7.82324 12.6667 8.00005C12.6667 8.17687 12.5964 8.34643 12.4714 8.47146C12.3464 8.59648 12.1768 8.66672 12 8.66672L1.87466 8.64605L4.75666 11.5287C4.82033 11.5902 4.87112 11.6638 4.90606 11.7451C4.941 11.8265 4.95939 11.9139 4.96016 12.0025C4.96093 12.091 4.94406 12.1788 4.91054 12.2607C4.87702 12.3426 4.82751 12.4171 4.76492 12.4797C4.70232 12.5422 4.62789 12.5917 4.54596 12.6253C4.46403 12.6588 4.37624 12.6757 4.28772 12.6749C4.1992 12.6741 4.11172 12.6557 4.03039 12.6208C3.94905 12.5858 3.87549 12.5351 3.81399 12.4714L0.756657 9.41405C0.381537 9.03918 0.170666 8.53066 0.170416 8.00033C0.170166 7.47 0.380557 6.96129 0.755322 6.58605Z" fill="#215154"/>
</svg>
