<svg width="16" height="16" viewBox="0 0 16 16" fill="none" xmlns="http://www.w3.org/2000/svg">
<path d="M6.33331 10C6.51012 10 6.67969 10.0702 6.80472 10.1953C6.92974 10.3203 6.99998 10.4899 6.99998 10.6667V12.6667C6.99998 13.1971 7.21069 13.7058 7.58576 14.0809C7.96084 14.456 8.46955 14.6667 8.99998 14.6667H10.6506C11.1811 14.6667 11.6898 14.456 12.0649 14.0809C12.4399 13.7058 12.6506 13.1971 12.6506 12.6667V3.33333C12.6506 2.8029 12.4399 2.29419 12.0649 1.91912C11.6898 1.54405 11.1811 1.33333 10.6506 1.33333H8.99998C8.46955 1.33333 7.96084 1.54405 7.58576 1.91912C7.21069 2.29419 6.99998 2.8029 6.99998 3.33333V5.33333C6.99998 5.51014 6.92974 5.67971 6.80472 5.80474C6.67969 5.92976 6.51012 6 6.33331 6C6.1565 6 5.98693 5.92976 5.86191 5.80474C5.73688 5.67971 5.66664 5.51014 5.66664 5.33333V3.33333C5.6677 2.4496 6.01923 1.60237 6.64412 0.97748C7.26902 0.352588 8.11625 0.00105857 8.99998 0H10.6506C11.5344 0.00105857 12.3816 0.352588 13.0065 0.97748C13.6314 1.60237 13.9829 2.4496 13.984 3.33333L13.984 12.6667C13.9829 13.5504 13.6314 14.3976 13.0065 15.0225C12.3816 15.6474 11.5344 15.9989 10.6506 16H8.99998C8.11625 15.9989 7.26902 15.6474 6.64412 15.0225C6.01923 14.3976 5.6677 13.5504 5.66664 12.6667V10.6667C5.66664 10.4899 5.73688 10.3203 5.86191 10.1953C5.98693 10.0702 6.1565 10 6.33331 10Z" fill="white"/>
<path d="M0.755338 6.58599L3.81267 3.52866C3.87417 3.46499 3.94773 3.4142 4.02907 3.37926C4.11041 3.34432 4.19788 3.32593 4.2864 3.32516C4.37492 3.32439 4.46271 3.34126 4.54464 3.37478C4.62657 3.4083 4.70101 3.4578 4.7636 3.5204C4.8262 3.58299 4.8757 3.65743 4.90922 3.73936C4.94274 3.82129 4.95961 3.90907 4.95884 3.99759C4.95807 4.08611 4.93968 4.17359 4.90474 4.25493C4.8698 4.33627 4.81901 4.40983 4.75534 4.47133L1.914 7.31333L12 7.33333C12.1768 7.33333 12.3464 7.40356 12.4714 7.52859C12.5964 7.65361 12.6667 7.82318 12.6667 7.99999C12.6667 8.1768 12.5964 8.34637 12.4714 8.4714C12.3464 8.59642 12.1768 8.66666 12 8.66666L1.87467 8.64599L4.75667 11.5287C4.82035 11.5902 4.87113 11.6637 4.90607 11.7451C4.94101 11.8264 4.9594 11.9139 4.96017 12.0024C4.96094 12.0909 4.94407 12.1787 4.91055 12.2606C4.87703 12.3426 4.82753 12.417 4.76493 12.4796C4.70234 12.5422 4.62791 12.5917 4.54597 12.6252C4.46404 12.6587 4.37626 12.6756 4.28774 12.6748C4.19922 12.6741 4.11174 12.6557 4.0304 12.6207C3.94907 12.5858 3.8755 12.535 3.81401 12.4713L0.756672 9.41399C0.381553 9.03911 0.170681 8.5306 0.170431 8.00027C0.170181 7.46994 0.380572 6.96123 0.755338 6.58599Z" fill="white"/>
</svg>
