<svg width="102" height="102" viewBox="0 0 102 102" fill="none" xmlns="http://www.w3.org/2000/svg">
<rect x="1" y="1" width="100" height="100" stroke="#5F9A7F"/>
<path d="M29.52 33.12C29.056 32.144 28.384 31.392 27.504 30.864C26.624 30.32 25.6 30.048 24.432 30.048C23.264 30.048 22.208 30.32 21.264 30.864C20.336 31.392 19.6 32.16 19.056 33.168C18.528 34.16 18.264 35.312 18.264 36.624C18.264 37.936 18.528 39.088 19.056 40.08C19.6 41.072 20.336 41.84 21.264 42.384C22.208 42.912 23.264 43.176 24.432 43.176C26.064 43.176 27.408 42.688 28.464 41.712C29.52 40.736 30.136 39.416 30.312 37.752H23.64V35.976H32.64V37.656C32.512 39.032 32.08 40.296 31.344 41.448C30.608 42.584 29.64 43.488 28.44 44.16C27.24 44.816 25.904 45.144 24.432 45.144C22.88 45.144 21.464 44.784 20.184 44.064C18.904 43.328 17.888 42.312 17.136 41.016C16.4 39.72 16.032 38.256 16.032 36.624C16.032 34.992 16.4 33.528 17.136 32.232C17.888 30.92 18.904 29.904 20.184 29.184C21.464 28.448 22.88 28.08 24.432 28.08C26.208 28.08 27.776 28.52 29.136 29.4C30.512 30.28 31.512 31.52 32.136 33.12H29.52ZM37.7117 33.984C38.0957 33.232 38.6397 32.648 39.3437 32.232C40.0637 31.816 40.9357 31.608 41.9597 31.608V33.864H41.3837C38.9357 33.864 37.7117 35.192 37.7117 37.848V45H35.5277V31.848H37.7117V33.984ZM56.4808 37.92C56.4808 38.336 56.4568 38.776 56.4088 39.24H45.8968C45.9768 40.536 46.4168 41.552 47.2168 42.288C48.0328 43.008 49.0168 43.368 50.1688 43.368C51.1128 43.368 51.8968 43.152 52.5208 42.72C53.1608 42.272 53.6088 41.68 53.8648 40.944H56.2168C55.8648 42.208 55.1608 43.24 54.1048 44.04C53.0488 44.824 51.7368 45.216 50.1688 45.216C48.9208 45.216 47.8008 44.936 46.8088 44.376C45.8328 43.816 45.0648 43.024 44.5048 42C43.9448 40.96 43.6648 39.76 43.6648 38.4C43.6648 37.04 43.9368 35.848 44.4808 34.824C45.0248 33.8 45.7848 33.016 46.7608 32.472C47.7528 31.912 48.8888 31.632 50.1688 31.632C51.4168 31.632 52.5208 31.904 53.4808 32.448C54.4408 32.992 55.1768 33.744 55.6888 34.704C56.2168 35.648 56.4808 36.72 56.4808 37.92ZM54.2248 37.464C54.2248 36.632 54.0408 35.92 53.6728 35.328C53.3048 34.72 52.8008 34.264 52.1608 33.96C51.5368 33.64 50.8408 33.48 50.0728 33.48C48.9688 33.48 48.0248 33.832 47.2408 34.536C46.4728 35.24 46.0328 36.216 45.9208 37.464H54.2248ZM71.3636 37.92C71.3636 38.336 71.3396 38.776 71.2916 39.24H60.7796C60.8596 40.536 61.2996 41.552 62.0996 42.288C62.9156 43.008 63.8996 43.368 65.0516 43.368C65.9956 43.368 66.7796 43.152 67.4036 42.72C68.0436 42.272 68.4916 41.68 68.7476 40.944H71.0996C70.7476 42.208 70.0436 43.24 68.9876 44.04C67.9316 44.824 66.6196 45.216 65.0516 45.216C63.8036 45.216 62.6836 44.936 61.6916 44.376C60.7156 43.816 59.9476 43.024 59.3876 42C58.8276 40.96 58.5476 39.76 58.5476 38.4C58.5476 37.04 58.8196 35.848 59.3636 34.824C59.9076 33.8 60.6676 33.016 61.6436 32.472C62.6356 31.912 63.7716 31.632 65.0516 31.632C66.2996 31.632 67.4036 31.904 68.3636 32.448C69.3236 32.992 70.0596 33.744 70.5716 34.704C71.0996 35.648 71.3636 36.72 71.3636 37.92ZM69.1076 37.464C69.1076 36.632 68.9236 35.92 68.5556 35.328C68.1876 34.72 67.6836 34.264 67.0436 33.96C66.4196 33.64 65.7236 33.48 64.9556 33.48C63.8516 33.48 62.9076 33.832 62.1236 34.536C61.3556 35.24 60.9156 36.216 60.8036 37.464H69.1076ZM80.6544 31.608C82.2544 31.608 83.5504 32.096 84.5424 33.072C85.5344 34.032 86.0304 35.424 86.0304 37.248V45H83.8704V37.56C83.8704 36.248 83.5424 35.248 82.8864 34.56C82.2304 33.856 81.3344 33.504 80.1984 33.504C79.0464 33.504 78.1264 33.864 77.4384 34.584C76.7664 35.304 76.4304 36.352 76.4304 37.728V45H74.2464V31.848H76.4304V33.72C76.8624 33.048 77.4464 32.528 78.1824 32.16C78.9344 31.792 79.7584 31.608 80.6544 31.608Z" fill="white"/>
<path d="M33.152 73.168C32.048 73.168 31.056 72.976 30.176 72.592C29.312 72.192 28.632 71.648 28.136 70.96C27.64 70.256 27.384 69.448 27.368 68.536H29.696C29.776 69.32 30.096 69.984 30.656 70.528C31.232 71.056 32.064 71.32 33.152 71.32C34.192 71.32 35.008 71.064 35.6 70.552C36.208 70.024 36.512 69.352 36.512 68.536C36.512 67.896 36.336 67.376 35.984 66.976C35.632 66.576 35.192 66.272 34.664 66.064C34.136 65.856 33.424 65.632 32.528 65.392C31.424 65.104 30.536 64.816 29.864 64.528C29.208 64.24 28.64 63.792 28.16 63.184C27.696 62.56 27.464 61.728 27.464 60.688C27.464 59.776 27.696 58.968 28.16 58.264C28.624 57.56 29.272 57.016 30.104 56.632C30.952 56.248 31.92 56.056 33.008 56.056C34.576 56.056 35.856 56.448 36.848 57.232C37.856 58.016 38.424 59.056 38.552 60.352H36.152C36.072 59.712 35.736 59.152 35.144 58.672C34.552 58.176 33.768 57.928 32.792 57.928C31.88 57.928 31.136 58.168 30.56 58.648C29.984 59.112 29.696 59.768 29.696 60.616C29.696 61.224 29.864 61.72 30.2 62.104C30.552 62.488 30.976 62.784 31.472 62.992C31.984 63.184 32.696 63.408 33.608 63.664C34.712 63.968 35.6 64.272 36.272 64.576C36.944 64.864 37.52 65.32 38 65.944C38.48 66.552 38.72 67.384 38.72 68.44C38.72 69.256 38.504 70.024 38.072 70.744C37.64 71.464 37 72.048 36.152 72.496C35.304 72.944 34.304 73.168 33.152 73.168ZM43.0619 57.712C42.6459 57.712 42.2939 57.568 42.0059 57.28C41.7179 56.992 41.5739 56.64 41.5739 56.224C41.5739 55.808 41.7179 55.456 42.0059 55.168C42.2939 54.88 42.6459 54.736 43.0619 54.736C43.4619 54.736 43.7979 54.88 44.0699 55.168C44.3579 55.456 44.5019 55.808 44.5019 56.224C44.5019 56.64 44.3579 56.992 44.0699 57.28C43.7979 57.568 43.4619 57.712 43.0619 57.712ZM44.1179 59.848V73H41.9339V59.848H44.1179ZM53.2642 59.632C54.4002 59.632 55.3922 59.88 56.2402 60.376C57.1042 60.872 57.7442 61.496 58.1602 62.248V59.848H60.3682V73.288C60.3682 74.488 60.1122 75.552 59.6002 76.48C59.0882 77.424 58.3522 78.16 57.3922 78.688C56.4482 79.216 55.3442 79.48 54.0802 79.48C52.3522 79.48 50.9122 79.072 49.7602 78.256C48.6082 77.44 47.9282 76.328 47.7202 74.92H49.8802C50.1202 75.72 50.6162 76.36 51.3682 76.84C52.1202 77.336 53.0242 77.584 54.0802 77.584C55.2802 77.584 56.2562 77.208 57.0082 76.456C57.7762 75.704 58.1602 74.648 58.1602 73.288V70.528C57.7282 71.296 57.0882 71.936 56.2402 72.448C55.3922 72.96 54.4002 73.216 53.2642 73.216C52.0962 73.216 51.0322 72.928 50.0722 72.352C49.1282 71.776 48.3842 70.968 47.8402 69.928C47.2962 68.888 47.0242 67.704 47.0242 66.376C47.0242 65.032 47.2962 63.856 47.8402 62.848C48.3842 61.824 49.1282 61.032 50.0722 60.472C51.0322 59.912 52.0962 59.632 53.2642 59.632ZM58.1602 66.4C58.1602 65.408 57.9602 64.544 57.5602 63.808C57.1602 63.072 56.6162 62.512 55.9282 62.128C55.2562 61.728 54.5122 61.528 53.6962 61.528C52.8802 61.528 52.1362 61.72 51.4642 62.104C50.7922 62.488 50.2562 63.048 49.8562 63.784C49.4562 64.52 49.2562 65.384 49.2562 66.376C49.2562 67.384 49.4562 68.264 49.8562 69.016C50.2562 69.752 50.7922 70.32 51.4642 70.72C52.1362 71.104 52.8802 71.296 53.6962 71.296C54.5122 71.296 55.2562 71.104 55.9282 70.72C56.6162 70.32 57.1602 69.752 57.5602 69.016C57.9602 68.264 58.1602 67.392 58.1602 66.4ZM70.5869 59.608C71.5789 59.608 72.4749 59.824 73.2749 60.256C74.0749 60.672 74.6989 61.304 75.1469 62.152C75.6109 63 75.8429 64.032 75.8429 65.248V73H73.6829V65.56C73.6829 64.248 73.3549 63.248 72.6989 62.56C72.0429 61.856 71.1469 61.504 70.0109 61.504C68.8589 61.504 67.9389 61.864 67.2509 62.584C66.5789 63.304 66.2429 64.352 66.2429 65.728V73H64.0589V55.24H66.2429V61.72C66.6749 61.048 67.2669 60.528 68.0189 60.16C68.7869 59.792 69.6429 59.608 70.5869 59.608ZM82.0745 61.648V69.4C82.0745 70.04 82.2105 70.496 82.4825 70.768C82.7545 71.024 83.2265 71.152 83.8985 71.152H85.5065V73H83.5385C82.3225 73 81.4105 72.72 80.8025 72.16C80.1945 71.6 79.8905 70.68 79.8905 69.4V61.648H78.1865V59.848H79.8905V56.536H82.0745V59.848H85.5065V61.648H82.0745Z" fill="white"/>
<rect x="64" y="76" width="22" height="1" fill="#D9D9D9"/>
</svg>
