<svg width="24" height="11" viewBox="0 0 24 11" fill="none" xmlns="http://www.w3.org/2000/svg">
<path fill-rule="evenodd" clip-rule="evenodd" d="M5.803 2.6506L12.0013 0L18.1994 2.6506H22.0643V3.732H24V11H0V3.732H1.9367V2.6506H5.803ZM17.7244 5.7586L17.7246 4.5836L18.6445 4.584L18.4858 5.76L17.7244 5.7586ZM22.0086 5.2923C21.7346 5.2923 21.5031 5.5052 21.5031 5.7942C21.5031 6.0852 21.7346 6.2992 22.0086 6.2992C22.2797 6.2992 22.5116 6.0852 22.5116 5.7942C22.5116 5.5052 22.2797 5.2923 22.0086 5.2923ZM22.0086 6.215C22.2336 6.215 22.4109 6.0371 22.4109 5.7942C22.4109 5.5559 22.2336 5.3765 22.0086 5.3765C21.7807 5.3765 21.6033 5.5559 21.6033 5.7942C21.6033 6.0371 21.7807 6.215 22.0086 6.215ZM21.8167 6.0852H21.9034V5.8338H22.0036L22.1549 6.0852H22.2521L22.0893 5.8302C22.1735 5.8196 22.2371 5.7744 22.2371 5.6705C22.2371 5.5559 22.1699 5.5052 22.0352 5.5052H21.8167V6.0852ZM22.1469 5.6639C22.1469 5.7542 22.0808 5.7597 22.0076 5.7597H21.9034V5.5798H22.0217C22.0818 5.5798 22.1469 5.593 22.1469 5.6639ZM3.8284 4.5835V8.5877H5.5257V9.5412H2.7315V4.5835H3.8284ZM14.8711 9.5413H17.4822V8.5865H15.9735V7.9643H17.4822V7.0451H15.9735V6.4195H17.4822V5.4606H14.8711V9.5413ZM9.1318 9.0202C9.13167 9.15853 9.0766 9.29114 8.97871 9.38888C8.88083 9.48662 8.74813 9.54148 8.6098 9.5414H6.4908C6.35252 9.5414 6.2199 9.4865 6.12208 9.38877C6.02426 9.29104 5.96923 9.15848 5.9691 9.0202V5.9819C5.96918 5.84361 6.02419 5.71101 6.12202 5.61327C6.21986 5.51553 6.35251 5.46065 6.4908 5.4607H8.6098C8.8982 5.4607 9.1318 5.694 9.1318 5.9819V9.0202ZM8.0328 6.4196H7.0681V8.5826H8.0329L8.0328 6.4196ZM13.1449 5.4608V8.5877H12.4826V5.4608H11.5178V8.5877H10.8555V5.4608H9.7565V9.02C9.7565 9.3079 9.9902 9.5415 10.2787 9.5415H11.5776C11.7965 9.5415 12.0002 9.3905 12.0002 9.172C12.0002 9.3905 12.2039 9.5415 12.4228 9.5415H13.7221C13.8604 9.5415 13.9931 9.48656 14.0909 9.38877C14.1888 9.29097 14.2437 9.15833 14.2438 9.02V5.4608H13.1449ZM21.3344 7.9996C21.4148 8.1694 21.4523 8.3403 21.4469 8.5074C21.4274 9.1119 20.9847 9.4673 20.98 9.4706C20.787 9.627 20.4885 9.7066 20.0931 9.7066C19.3686 9.7066 18.5522 9.4367 18.5445 9.4341L18.5307 9.4294V8.4527L18.5576 8.4628C18.566 8.4662 19.4091 8.7796 19.8249 8.8373L19.8354 8.8387C19.8648 8.84265 19.8944 8.84456 19.9241 8.8444C20.1403 8.8444 20.3114 8.744 20.35 8.5947C20.3874 8.4507 20.2973 8.2886 20.1204 8.1826L20.1188 8.1815C19.9625 8.0888 19.7954 8.013 19.6341 7.9405C19.2427 7.7637 18.8375 7.5808 18.5852 7.1438C18.3889 6.7568 18.4144 6.2383 18.6454 5.9107C18.9204 5.512 19.3426 5.31 19.9 5.31C19.9662 5.31 20.0351 5.3127 20.1047 5.3187C20.7101 5.4053 21.3095 5.7825 21.3156 5.7866L21.3247 5.7923V6.683L21.2971 6.6716C21.0983 6.58727 20.899 6.5039 20.6994 6.4215C20.5488 6.3595 20.2583 6.2551 20.0028 6.2551C19.8431 6.2551 19.7221 6.2964 19.6431 6.3766C19.5682 6.4407 19.5409 6.5461 19.5524 6.6132C19.5942 6.852 19.9693 6.9991 20.0947 7.0483L20.0959 7.0488L20.1181 7.0572C20.7448 7.3075 21.134 7.5982 21.3078 7.9462L21.3146 7.9596L21.3277 7.9855L21.3344 7.9996Z" fill="#012169"/>
</svg>
