<svg width="24" height="24" viewBox="0 0 24 24" fill="none" xmlns="http://www.w3.org/2000/svg">
<path d="M3.75019 3.00008C3.55126 3.0001 3.36049 3.07912 3.21982 3.21977C3.07916 3.36042 3.00013 3.55117 3.00011 3.75008V9.06453C2.99869 9.16392 3.01705 9.2626 3.05411 9.35484C3.09116 9.44707 3.14619 9.53102 3.21598 9.60181C3.28577 9.67259 3.36894 9.7288 3.46065 9.76717C3.55236 9.80553 3.65078 9.82529 3.75019 9.82529C3.8496 9.82529 3.94802 9.80553 4.03973 9.76717C4.13144 9.7288 4.2146 9.67259 4.2844 9.60181C4.35419 9.53102 4.40921 9.44707 4.44627 9.35484C4.48333 9.2626 4.50169 9.16392 4.50027 9.06453V4.50008H9.04326C9.14266 4.50148 9.24134 4.48312 9.33358 4.44606C9.42581 4.409 9.50977 4.35398 9.58055 4.2842C9.65134 4.21441 9.70755 4.13126 9.74591 4.03957C9.78428 3.94787 9.80403 3.84947 9.80403 3.75008C9.80403 3.65068 9.78428 3.55228 9.74591 3.46058C9.70755 3.36889 9.65134 3.28574 9.58055 3.21595C9.50977 3.14617 9.42581 3.09115 9.33358 3.05409C9.24134 3.01703 9.14266 2.99867 9.04326 3.00008H3.75019Z" fill="white"/>
<path d="M14.9566 3.00008C14.8572 2.99867 14.7586 3.01703 14.6664 3.05409C14.5742 3.09115 14.4902 3.14617 14.4194 3.21595C14.3487 3.28574 14.2925 3.36889 14.2541 3.46058C14.2158 3.55228 14.196 3.65068 14.196 3.75008C14.196 3.84947 14.2158 3.94787 14.2541 4.03957C14.2925 4.13126 14.3487 4.21441 14.4194 4.2842C14.4902 4.35398 14.5742 4.409 14.6664 4.44606C14.7586 4.48312 14.8572 4.50148 14.9566 4.50008H19.5001V9.06453C19.4987 9.16392 19.517 9.2626 19.5541 9.35484C19.5911 9.44707 19.6461 9.53102 19.7159 9.60181C19.7857 9.67259 19.8688 9.7288 19.9605 9.76717C20.0522 9.80553 20.1506 9.82529 20.25 9.82529C20.3494 9.82529 20.4478 9.80553 20.5395 9.76717C20.6312 9.7288 20.7143 9.67259 20.7841 9.60181C20.8539 9.53102 20.9089 9.44707 20.9459 9.35484C20.983 9.2626 21.0014 9.16392 20.9999 9.06453V3.75008C20.9999 3.55117 20.9209 3.36041 20.7803 3.21977C20.6396 3.07912 20.4489 3.00009 20.25 3.00008H14.9566Z" fill="white"/>
<path d="M3.73844 14.1751C3.53976 14.1782 3.35043 14.2601 3.212 14.4026C3.07357 14.5452 2.99735 14.7369 3.00007 14.9356V20.2498C3.00009 20.4488 3.07913 20.6396 3.21979 20.7802C3.36045 20.9209 3.55123 21 3.75016 21H9.04323C9.1426 21.0013 9.24125 20.9829 9.33345 20.9459C9.42565 20.9088 9.50956 20.8537 9.58031 20.7839C9.65106 20.7141 9.70724 20.631 9.74559 20.5393C9.78393 20.4476 9.80368 20.3492 9.80368 20.2498C9.80368 20.1504 9.78393 20.052 9.74559 19.9603C9.70724 19.8686 9.65106 19.7855 9.58031 19.7157C9.50956 19.6459 9.42565 19.5908 9.33345 19.5537C9.24125 19.5167 9.1426 19.4983 9.04323 19.4996H4.50024V14.9356C4.50162 14.8352 4.48284 14.7356 4.44503 14.6426C4.40721 14.5496 4.35112 14.4652 4.28009 14.3943C4.20905 14.3234 4.12451 14.2674 4.03147 14.2298C3.93843 14.1922 3.83879 14.1736 3.73844 14.1751Z" fill="white"/>
<path d="M20.2382 14.1751C20.0396 14.1782 19.8503 14.2601 19.7118 14.4026C19.5734 14.5452 19.4972 14.7369 19.4999 14.9356V19.4996H14.956C14.8566 19.4983 14.758 19.5167 14.6658 19.5537C14.5736 19.5908 14.4897 19.6459 14.419 19.7157C14.3482 19.7855 14.2921 19.8686 14.2537 19.9603C14.2154 20.052 14.1956 20.1504 14.1956 20.2498C14.1956 20.3492 14.2154 20.4476 14.2537 20.5393C14.2921 20.631 14.3482 20.7141 14.419 20.7839C14.4897 20.8537 14.5736 20.9088 14.6658 20.9459C14.758 20.9829 14.8566 21.0013 14.956 21H20.2499C20.4489 21 20.6396 20.9209 20.7803 20.7802C20.9209 20.6396 20.9999 20.4488 20.9999 20.2498V14.9356C21.0013 14.8352 20.9825 14.7356 20.9447 14.6426C20.9069 14.5496 20.8508 14.4652 20.7798 14.3943C20.7088 14.3234 20.6243 14.2674 20.5312 14.2298C20.4382 14.1922 20.3386 14.1736 20.2382 14.1751Z" fill="white"/>
</svg>
