<svg width="28" height="28" viewBox="0 0 18 18" fill="none" xmlns="http://www.w3.org/2000/svg">
<rect x="0.5" y="0.5" width="17" height="17" rx="3.5" stroke="#215154"/>
<path d="M14.1316 4.43939L11.5903 6.98079H13.0384C13.2615 6.98079 13.4423 7.16161 13.4423 7.38463C13.4423 7.60766 13.2615 7.78848 13.0384 7.78848H10.6154C10.3924 7.78848 10.2115 7.60766 10.2115 7.38463V4.96156C10.2115 4.73854 10.3924 4.55772 10.6154 4.55772C10.8384 4.55772 11.0192 4.73854 11.0192 4.96156V6.40975L13.5606 3.86835C13.7184 3.71055 13.9739 3.71055 14.1316 3.86835C14.2893 4.02615 14.2895 4.28169 14.1316 4.43939ZM7.38462 4.55772C7.1616 4.55772 6.98078 4.73854 6.98078 4.96156V6.40975L4.43939 3.86835C4.28159 3.71055 4.02605 3.71055 3.86835 3.86835C3.71065 4.02615 3.71055 4.28169 3.86835 4.43939L6.40974 6.98079H4.96156C4.73853 6.98079 4.55771 7.16161 4.55771 7.38463C4.55771 7.60766 4.73853 7.78848 4.96156 7.78848H7.38462C7.60765 7.78848 7.78847 7.60766 7.78847 7.38463V4.96156C7.78847 4.73854 7.60765 4.55772 7.38462 4.55772ZM14.1316 13.5606L11.5903 11.0192H13.0384C13.2615 11.0192 13.4423 10.8384 13.4423 10.6154C13.4423 10.3924 13.2615 10.2115 13.0384 10.2115H10.6154C10.3924 10.2115 10.2115 10.3924 10.2115 10.6154V13.0385C10.2115 13.2615 10.3924 13.4423 10.6154 13.4423C10.8384 13.4423 11.0192 13.2615 11.0192 13.0385V11.5903L13.5606 14.1317C13.6395 14.2105 13.7428 14.25 13.8461 14.25C13.9494 14.25 14.0528 14.2105 14.1316 14.1317C14.2895 13.974 14.2895 13.7183 14.1316 13.5606ZM7.38462 10.2115H4.96156C4.73853 10.2115 4.55771 10.3924 4.55771 10.6154C4.55771 10.8384 4.73853 11.0192 4.96156 11.0192H6.40974L3.86835 13.5606C3.71055 13.7184 3.71055 13.974 3.86835 14.1317C3.9472 14.2105 4.05059 14.25 4.15387 14.25C4.25715 14.25 4.36054 14.2105 4.43939 14.1317L6.98078 11.5903V13.0385C6.98078 13.2615 7.1616 13.4423 7.38462 13.4423C7.60765 13.4423 7.78847 13.2615 7.78847 13.0385V10.6154C7.78847 10.3924 7.60765 10.2115 7.38462 10.2115Z" fill="#215154"/>
</svg>
