<svg width="8" height="7" viewBox="0 0 8 7" fill="none" xmlns="http://www.w3.org/2000/svg">
<path d="M4.56339 3.02347L6.9108 0.676056C7.06104 0.525822 7.06104 0.262911 6.9108 0.112676C6.76057 -0.0375587 6.49766 -0.0375587 6.34742 0.112676L4.00001 2.46009L1.65259 0.112676C1.50235 -0.0375587 1.23944 -0.0375587 1.08921 0.112676C0.938973 0.262911 0.938973 0.525822 1.08921 0.676056L3.43663 3.02347L1.08921 5.35211C0.938973 5.50235 0.938973 5.76526 1.08921 5.91549C1.16433 5.99061 1.277 6.02817 1.3709 6.02817C1.46479 6.02817 1.57747 5.99061 1.65259 5.91549L4.00001 3.56808L6.34742 5.91549C6.42254 5.99061 6.53522 6.02817 6.62911 6.02817C6.72301 6.02817 6.83569 5.99061 6.9108 5.91549C7.06104 5.76526 7.06104 5.50235 6.9108 5.35211L4.56339 3.02347Z" fill="#929597"/>
</svg>
