<svg width="60" height="60" viewBox="0 0 90 90" fill="none" xmlns="http://www.w3.org/2000/svg">
<g clip-path="url(#clip0_1742_4486)">
<path d="M89.1176 0.882324H0.882324V89.1176H89.1176V0.882324Z" stroke="white" stroke-width="0.882353"/>
<path d="M26.0471 29.2235C25.6376 28.3624 25.0447 27.6988 24.2682 27.233C23.4918 26.753 22.5882 26.513 21.5576 26.513C20.5271 26.513 19.5953 26.753 18.7623 27.233C17.9435 27.6988 17.2941 28.3765 16.8141 29.2659C16.3482 30.1412 16.1153 31.1577 16.1153 32.3153C16.1153 33.473 16.3482 34.4894 16.8141 35.3647C17.2941 36.24 17.9435 36.9177 18.7623 37.3977C19.5953 37.8635 20.5271 38.0965 21.5576 38.0965C22.9976 38.0965 24.1835 37.6659 25.1153 36.8047C26.0471 35.9436 26.5906 34.7788 26.7459 33.3106H20.8588V31.7435H28.8V33.2259C28.6871 34.44 28.3059 35.5553 27.6565 36.5718C27.0071 37.5741 26.1529 38.3718 25.0941 38.9647C24.0353 39.5435 22.8565 39.833 21.5576 39.833C20.1882 39.833 18.9388 39.5153 17.8094 38.88C16.68 38.2306 15.7835 37.3341 15.12 36.1906C14.4706 35.0471 14.1459 33.7553 14.1459 32.3153C14.1459 30.8753 14.4706 29.5835 15.12 28.44C15.7835 27.2824 16.68 26.3859 17.8094 25.7506C18.9388 25.1012 20.1882 24.7765 21.5576 24.7765C23.1247 24.7765 24.5082 25.1647 25.7082 25.9412C26.9223 26.7177 27.8047 27.8118 28.3553 29.2235H26.0471ZM33.275 29.9859C33.6138 29.3224 34.0938 28.8071 34.715 28.44C35.3503 28.073 36.1197 27.8894 37.0233 27.8894V29.88H36.515C34.355 29.88 33.275 31.0518 33.275 33.3953V39.7059H31.348V28.1012H33.275V29.9859ZM49.836 33.4588C49.836 33.8259 49.8148 34.2141 49.7725 34.6235H40.4972C40.5678 35.7671 40.956 36.6635 41.6619 37.313C42.3819 37.9483 43.2501 38.2659 44.2666 38.2659C45.0995 38.2659 45.7913 38.0753 46.3419 37.6941C46.9066 37.2988 47.3019 36.7765 47.5278 36.1271H49.6031C49.2925 37.2424 48.6713 38.153 47.7395 38.8588C46.8078 39.5506 45.6501 39.8965 44.2666 39.8965C43.1654 39.8965 42.1772 39.6494 41.3019 39.1553C40.4407 38.6612 39.7631 37.9624 39.2689 37.0588C38.7748 36.1412 38.5278 35.0824 38.5278 33.8824C38.5278 32.6824 38.7678 31.6306 39.2478 30.7271C39.7278 29.8235 40.3983 29.1318 41.2595 28.6518C42.1348 28.1577 43.1372 27.9106 44.2666 27.9106C45.3678 27.9106 46.3419 28.1506 47.1889 28.6306C48.036 29.1106 48.6854 29.7741 49.1372 30.6212C49.6031 31.4541 49.836 32.4 49.836 33.4588ZM47.8454 33.0565C47.8454 32.3224 47.6831 31.6941 47.3583 31.1718C47.0336 30.6353 46.5889 30.233 46.0242 29.9647C45.4736 29.6824 44.8595 29.5412 44.1819 29.5412C43.2078 29.5412 42.3748 29.8518 41.6831 30.473C41.0054 31.0941 40.6172 31.9553 40.5183 33.0565H47.8454ZM62.9679 33.4588C62.9679 33.8259 62.9467 34.2141 62.9044 34.6235H53.629C53.6996 35.7671 54.0879 36.6635 54.7938 37.313C55.5138 37.9483 56.382 38.2659 57.3985 38.2659C58.2314 38.2659 58.9232 38.0753 59.4738 37.6941C60.0385 37.2988 60.4338 36.7765 60.6596 36.1271H62.7349C62.4243 37.2424 61.8032 38.153 60.8714 38.8588C59.9396 39.5506 58.782 39.8965 57.3985 39.8965C56.2973 39.8965 55.3091 39.6494 54.4338 39.1553C53.5726 38.6612 52.8949 37.9624 52.4008 37.0588C51.9067 36.1412 51.6596 35.0824 51.6596 33.8824C51.6596 32.6824 51.8996 31.6306 52.3796 30.7271C52.8596 29.8235 53.5302 29.1318 54.3914 28.6518C55.2667 28.1577 56.2691 27.9106 57.3985 27.9106C58.4996 27.9106 59.4738 28.1506 60.3208 28.6306C61.1679 29.1106 61.8173 29.7741 62.2691 30.6212C62.7349 31.4541 62.9679 32.4 62.9679 33.4588ZM60.9773 33.0565C60.9773 32.3224 60.8149 31.6941 60.4902 31.1718C60.1655 30.6353 59.7208 30.233 59.1561 29.9647C58.6055 29.6824 57.9914 29.5412 57.3138 29.5412C56.3396 29.5412 55.5067 29.8518 54.8149 30.473C54.1373 31.0941 53.7491 31.9553 53.6502 33.0565H60.9773ZM71.1656 27.8894C72.5774 27.8894 73.7209 28.32 74.5962 29.1812C75.4715 30.0283 75.9092 31.2565 75.9092 32.8659V39.7059H74.0033V33.1412C74.0033 31.9835 73.7139 31.1012 73.1351 30.4941C72.5562 29.873 71.7656 29.5624 70.7633 29.5624C69.7468 29.5624 68.9351 29.88 68.328 30.5153C67.7351 31.1506 67.4386 32.0753 67.4386 33.2894V39.7059H65.5115V28.1012H67.4386V29.753C67.8198 29.16 68.3351 28.7012 68.9845 28.3765C69.648 28.0518 70.3751 27.8894 71.1656 27.8894Z" fill="white"/>
<path d="M29.2517 64.56C28.2776 64.56 27.4023 64.3906 26.6258 64.0518C25.8635 63.6989 25.2635 63.2189 24.8258 62.6118C24.3882 61.9906 24.1623 61.2777 24.1482 60.473H26.2023C26.2729 61.1647 26.5553 61.7506 27.0494 62.2306C27.5576 62.6965 28.2917 62.9295 29.2517 62.9295C30.1694 62.9295 30.8894 62.7036 31.4117 62.2518C31.9482 61.7859 32.2164 61.193 32.2164 60.473C32.2164 59.9083 32.0611 59.4494 31.7505 59.0965C31.44 58.7436 31.0517 58.4753 30.5858 58.2918C30.12 58.1083 29.4917 57.9106 28.7011 57.6989C27.727 57.4447 26.9435 57.1906 26.3505 56.9365C25.7717 56.6824 25.2705 56.2871 24.847 55.7506C24.4376 55.2 24.2329 54.4659 24.2329 53.5483C24.2329 52.7436 24.4376 52.0306 24.847 51.4094C25.2564 50.7883 25.8282 50.3083 26.5623 49.9694C27.3105 49.6306 28.1647 49.4612 29.1247 49.4612C30.5082 49.4612 31.6376 49.8071 32.5129 50.4989C33.4023 51.1906 33.9035 52.1083 34.0164 53.2518H31.8988C31.8282 52.6871 31.5317 52.193 31.0094 51.7695C30.487 51.3318 29.7953 51.113 28.9341 51.113C28.1294 51.113 27.4729 51.3247 26.9647 51.7483C26.4564 52.1577 26.2023 52.7365 26.2023 53.4847C26.2023 54.0212 26.3505 54.4589 26.647 54.7977C26.9576 55.1365 27.3317 55.3977 27.7694 55.5812C28.2211 55.7506 28.8494 55.9483 29.6541 56.1742C30.6282 56.4424 31.4117 56.7106 32.0047 56.9789C32.5976 57.233 33.1058 57.6353 33.5294 58.1859C33.9529 58.7224 34.1647 59.4565 34.1647 60.3883C34.1647 61.1083 33.9741 61.7859 33.5929 62.4212C33.2117 63.0565 32.647 63.5718 31.8988 63.9671C31.1505 64.3624 30.2682 64.56 29.2517 64.56ZM37.9958 50.9224C37.6287 50.9224 37.3181 50.7953 37.064 50.5412C36.8099 50.2871 36.6828 49.9765 36.6828 49.6094C36.6828 49.2424 36.8099 48.9318 37.064 48.6777C37.3181 48.4236 37.6287 48.2965 37.9958 48.2965C38.3487 48.2965 38.6452 48.4236 38.8852 48.6777C39.1393 48.9318 39.2663 49.2424 39.2663 49.6094C39.2663 49.9765 39.1393 50.2871 38.8852 50.5412C38.6452 50.7953 38.3487 50.9224 37.9958 50.9224ZM38.9275 52.8071V64.4118H37.0005V52.8071H38.9275ZM46.9978 52.6165C48.0001 52.6165 48.8754 52.8353 49.6237 53.273C50.386 53.7106 50.9507 54.2612 51.3178 54.9247V52.8071H53.266V64.6659C53.266 65.7247 53.0401 66.6636 52.5884 67.4824C52.1366 68.3153 51.4872 68.9647 50.6401 69.4306C49.8072 69.8965 48.8331 70.1295 47.7178 70.1295C46.1931 70.1295 44.9225 69.7694 43.906 69.0494C42.8895 68.3294 42.2895 67.3483 42.106 66.1059H44.0119C44.2237 66.8118 44.6613 67.3765 45.3248 67.8C45.9884 68.2377 46.786 68.4565 47.7178 68.4565C48.7766 68.4565 49.6378 68.1247 50.3013 67.4612C50.979 66.7977 51.3178 65.8659 51.3178 64.6659V62.2306C50.9366 62.9083 50.3719 63.473 49.6237 63.9247C48.8754 64.3765 48.0001 64.6024 46.9978 64.6024C45.9672 64.6024 45.0284 64.3483 44.1813 63.84C43.3484 63.3318 42.6919 62.6189 42.2119 61.7012C41.7319 60.7836 41.4919 59.7389 41.4919 58.5671C41.4919 57.3812 41.7319 56.3436 42.2119 55.4542C42.6919 54.5506 43.3484 53.8518 44.1813 53.3577C45.0284 52.8636 45.9672 52.6165 46.9978 52.6165ZM51.3178 58.5883C51.3178 57.713 51.1413 56.9506 50.7884 56.3012C50.4354 55.6518 49.9554 55.1577 49.3484 54.8189C48.7554 54.4659 48.099 54.2894 47.379 54.2894C46.659 54.2894 46.0025 54.4589 45.4095 54.7977C44.8166 55.1365 44.3437 55.6306 43.9907 56.28C43.6378 56.9295 43.4613 57.6918 43.4613 58.5671C43.4613 59.4565 43.6378 60.233 43.9907 60.8965C44.3437 61.5459 44.8166 62.0471 45.4095 62.4C46.0025 62.7389 46.659 62.9083 47.379 62.9083C48.099 62.9083 48.7554 62.7389 49.3484 62.4C49.9554 62.0471 50.4354 61.5459 50.7884 60.8965C51.1413 60.233 51.3178 59.4636 51.3178 58.5883ZM62.2825 52.5953C63.1578 52.5953 63.9484 52.7859 64.6543 53.1671C65.3602 53.5342 65.9107 54.0918 66.306 54.84C66.7155 55.5883 66.9202 56.4989 66.9202 57.5718V64.4118H65.0143V57.8471C65.0143 56.6894 64.7249 55.8071 64.146 55.2C63.5672 54.5789 62.7766 54.2683 61.7743 54.2683C60.7578 54.2683 59.946 54.5859 59.339 55.2212C58.746 55.8565 58.4496 56.7812 58.4496 57.9953V64.4118H56.5225V48.7412H58.4496V54.4589C58.8307 53.8659 59.3531 53.4071 60.0166 53.0824C60.6943 52.7577 61.4496 52.5953 62.2825 52.5953ZM72.4186 54.3953V61.2353C72.4186 61.8 72.5386 62.2024 72.7786 62.4424C73.0186 62.6683 73.4351 62.7812 74.028 62.7812H75.4469V64.4118H73.7104C72.6375 64.4118 71.8328 64.1647 71.2963 63.6706C70.7598 63.1765 70.4916 62.3647 70.4916 61.2353V54.3953H68.988V52.8071H70.4916V49.8847H72.4186V52.8071H75.4469V54.3953H72.4186Z" fill="white"/>
<path d="M75.8823 67.0588H56.4706V67.9412H75.8823V67.0588Z" fill="white"/>
</g>
<defs>
<clipPath id="clip0_1742_4486">
<rect width="90" height="90" fill="white"/>
</clipPath>
</defs>
</svg>
