<svg width="70" height="70" viewBox="0 0 70 70" fill="none" xmlns="http://www.w3.org/2000/svg">
<circle cx="35" cy="35" r="35" fill="#DCDCDC" fill-opacity="0.8"/>
<path d="M43.0012 56.4875C35.5211 56.4875 29.5013 50.4829 29.5013 43.0012C29.5013 35.5211 35.5211 29.5013 43.0012 29.5013C50.4829 29.5013 56.4875 35.5211 56.4875 43.0012C56.4875 50.4829 50.4829 56.4875 43.0012 56.4875ZM57.1936 54.0057C59.5607 50.9587 60.9863 47.1465 60.9863 43.0012C60.9863 33.0899 52.9149 25 43.0012 25C33.0891 25 25 33.0899 25 43.0012C25 52.9149 33.0891 60.9855 43.0012 60.9855C47.1474 60.9855 50.9595 59.5607 54.0057 57.1927L66.1507 69.3378C66.5742 69.7613 67.1479 70 67.7443 70C68.981 70 70 68.981 70 67.7443C70 67.1479 69.7621 66.5734 69.3386 66.1507L57.1936 54.0057Z" fill="#215154" fill-opacity="0.85"/>
</svg>
