<svg width="20" height="20" viewBox="0 0 20 20" fill="none" xmlns="http://www.w3.org/2000/svg">
<path d="M7.39204 20C7.235 20 7.07468 19.9759 6.91104 19.9199C6.09944 19.647 5.76802 18.792 5.47543 18.0387C5.35726 17.7356 5.16053 17.2285 5.02912 17.1295C4.89935 17.0322 4.38695 16.9961 4.08033 16.9745C3.34229 16.9229 2.42405 16.8592 1.90254 16.1403C1.36697 15.4024 1.60253 14.4622 1.7918 13.7072C1.86867 13.3998 1.99841 12.8849 1.94883 12.7265C1.89926 12.5672 1.52569 12.2444 1.27939 12.03C0.709952 11.5384 0 10.9245 0 10.0007C0 9.07086 0.723156 8.45011 1.30502 7.95075C1.53479 7.75359 1.91911 7.42384 1.96868 7.2749C2.01497 7.11908 1.88602 6.5973 1.81 6.28566C1.61741 5.50132 1.39842 4.61109 1.88438 3.88613C2.38194 3.14309 3.31006 3.08026 4.05556 3.02947C4.36632 3.0088 4.88619 2.97352 5.01592 2.87451C5.15065 2.77289 5.34652 2.26926 5.46305 1.96877C5.75396 1.21972 6.08374 0.371688 6.89201 0.0858511C7.71435 -0.206863 8.49208 0.30971 9.11524 0.722961C9.3979 0.910643 9.82437 1.19306 10.0012 1.19306C10.1814 1.19306 10.612 0.908933 10.8971 0.721251C11.5459 0.294206 12.2806 -0.189649 13.0898 0.0815375C13.9006 0.354474 14.2328 1.20857 14.5246 1.9619C14.6427 2.26495 14.8403 2.77293 14.9717 2.87194C15.1015 2.9701 15.6155 3.00538 15.9222 3.02691C16.6627 3.07855 17.5851 3.14313 18.0966 3.87066C18.6115 4.60247 18.3818 5.53319 18.1975 6.28139C18.1206 6.59221 17.9925 7.11225 18.0421 7.27409C18.0916 7.43251 18.4809 7.76913 18.714 7.96976C19.2868 8.46309 20 9.07782 20 10.0017C20 10.9315 19.2768 11.5531 18.695 12.0525C18.466 12.2497 18.0809 12.5794 18.0313 12.7283C17.9859 12.8833 18.1115 13.399 18.1867 13.7081C18.3793 14.4994 18.5975 15.3974 18.0892 16.1231C17.5842 16.8455 16.7048 16.9066 15.9296 16.9617C15.6188 16.9833 15.099 17.0194 14.9676 17.1201C14.8337 17.2226 14.6386 17.7263 14.5212 18.0267C14.2295 18.7749 13.9006 19.623 13.0922 19.9106C12.2699 20.2024 11.4971 19.6893 10.8773 19.2786C10.5979 19.0926 10.1756 18.812 9.99953 18.812C9.81937 18.812 9.38876 19.0961 9.10363 19.2838C8.58713 19.622 8.01441 20 7.39204 20ZM7.39204 1.72249C7.31188 1.79912 7.11351 2.30967 6.99534 2.61447C6.75482 3.23266 6.50688 3.87233 5.99284 4.26409C5.47465 4.65928 4.80767 4.70489 4.16299 4.7488C3.85638 4.76862 3.34229 4.8039 3.21584 4.8986C3.20178 5.00534 3.33319 5.53917 3.41089 5.85858C3.57121 6.5129 3.73817 7.18879 3.5357 7.81988C3.33901 8.43546 2.83899 8.86422 2.35549 9.27922C2.12244 9.47894 1.68933 9.85174 1.65132 10.0136C1.68687 10.1462 2.10919 10.5121 2.33647 10.7084C2.80012 11.1105 3.32495 11.5642 3.52246 12.1988C3.72 12.8342 3.54558 13.5307 3.39186 14.1446C3.31417 14.4546 3.18357 14.9754 3.23483 15.1278C3.33647 15.1993 3.89189 15.238 4.19108 15.2587C4.82583 15.3026 5.48203 15.3482 5.99612 15.7339C6.5143 16.1231 6.76556 16.7697 7.00854 17.3948C7.12589 17.6969 7.3218 18.2015 7.44989 18.2971C7.54079 18.2764 7.96644 17.994 8.22098 17.827C8.74663 17.4809 9.34169 17.0882 10.0012 17.0882C10.6591 17.0882 11.2484 17.48 11.7682 17.8244C12.0203 17.9914 12.441 18.2729 12.5914 18.2729C12.6724 18.1955 12.8707 17.6849 12.989 17.3801C13.2295 16.7611 13.4782 16.1222 13.9915 15.7305C14.5096 15.3344 15.2056 15.2862 15.8196 15.2432C16.1296 15.2225 16.6477 15.1855 16.7734 15.0873C16.7907 14.978 16.6618 14.4485 16.5849 14.1317C16.4271 13.4825 16.2634 12.8109 16.4643 12.1842C16.661 11.5686 17.161 11.1389 17.6445 10.7248C17.8709 10.5294 18.2891 10.1704 18.3453 10.0025C18.2908 9.83974 17.8825 9.48761 17.6618 9.29733C17.1957 8.89612 16.6676 8.44067 16.4709 7.80612C16.2733 7.16901 16.4452 6.47074 16.5965 5.8543C16.6742 5.54263 16.8023 5.02003 16.7519 4.86763C16.6535 4.8048 16.1271 4.76862 15.8122 4.74624C15.1766 4.70233 14.5195 4.65671 14.0047 4.27012C13.4865 3.88096 13.2352 3.23437 12.9922 2.6093C12.8749 2.30796 12.679 1.80343 12.5509 1.70788C12.4608 1.72941 12.0343 2.01093 11.7798 2.17884C11.2541 2.52494 10.6591 2.91756 9.99953 2.91756C9.34165 2.91756 8.74905 2.52409 8.2259 2.17798C7.97226 2.00573 7.54411 1.72249 7.39204 1.72249ZM18.3487 10.0136H18.3578H18.3487Z" fill="#D88D49"/>
<rect x="13.5687" y="5.96948" width="1.47054" height="10.7469" rx="0.735268" transform="rotate(45 13.5687 5.96948)" fill="#D88D49"/>
<circle cx="8.2319" cy="8.23195" r="1.11525" fill="#D88D49"/>
<circle cx="12.1099" cy="12.1099" r="1.11525" fill="#D88D49"/>
</svg>
