<svg width="16" height="16" viewBox="0 0 16 16" fill="none" xmlns="http://www.w3.org/2000/svg">
<path d="M8 2.66669C8.73639 2.66669 9.33334 2.06973 9.33334 1.33334C9.33334 0.596958 8.73639 0 8 0C7.26362 0 6.66666 0.596958 6.66666 1.33334C6.66666 2.06973 7.26362 2.66669 8 2.66669Z" fill="#215154"/>
<path d="M8 9.33331C8.73639 9.33331 9.33334 8.73636 9.33334 7.99997C9.33334 7.26358 8.73639 6.66663 8 6.66663C7.26362 6.66663 6.66666 7.26358 6.66666 7.99997C6.66666 8.73636 7.26362 9.33331 8 9.33331Z" fill="#215154"/>
<path d="M8 15.9999C8.73639 15.9999 9.33334 15.403 9.33334 14.6666C9.33334 13.9302 8.73639 13.3333 8 13.3333C7.26362 13.3333 6.66666 13.9302 6.66666 14.6666C6.66666 15.403 7.26362 15.9999 8 15.9999Z" fill="#215154"/>
</svg>
