<svg width="50" height="50" viewBox="0 0 40 40" fill="none" xmlns="http://www.w3.org/2000/svg">
<path d="M28.4665 5.52333C25.6202 3.25548 22.0027 2.18511 18.3807 2.53907C14.7586 2.89303 11.4168 4.64352 9.06339 7.41951C6.71002 10.1955 5.53011 13.7788 5.77374 17.4099C6.01737 21.0411 7.6654 24.4346 10.3685 26.8713C12.9089 29.0517 15.0069 31.6997 16.5485 34.6713L17.8525 37.2713C18.0184 37.6041 18.2738 37.8841 18.59 38.0798C18.9062 38.2755 19.2707 38.3792 19.6425 38.3792C20.0144 38.3792 20.3789 38.2755 20.6951 38.0798C21.0113 37.8841 21.2667 37.6041 21.4325 37.2713L22.7345 34.6713C24.0591 31.8412 25.982 29.3321 28.3705 27.3173C30.0043 26.0124 31.3249 24.358 32.2355 22.4758C33.1462 20.5935 33.6236 18.5312 33.6328 16.4403C33.642 14.3494 33.1828 12.2829 32.2888 10.3928C31.3947 8.50258 30.0887 6.83665 28.4665 5.51733V5.52333Z" fill="#042729"/>
<g clip-path="url(#clip0_1862_1199)">
<path d="M17.4544 8.01106C17.2995 7.96728 17.1384 8.05738 17.0945 8.2123L13.3029 21.6287C13.2592 21.7837 13.3492 21.9448 13.5042 21.9886C13.53 21.996 13.5567 21.9998 13.5835 22C13.7141 21.9999 13.8287 21.9131 13.8641 21.7874L17.6557 8.37098C17.6994 8.21602 17.6093 8.05492 17.4544 8.01106Z" fill="white"/>
<path d="M26.6971 21.629L22.9055 8.21258C22.8617 8.05754 22.7005 7.96737 22.5455 8.0112C22.3904 8.055 22.3003 8.21622 22.3441 8.37125L26.1357 21.7876C26.1712 21.9133 26.286 22.0001 26.4166 22C26.4434 21.9999 26.4701 21.9962 26.4959 21.9889C26.6508 21.9451 26.7409 21.7839 26.6971 21.629Z" fill="white"/>
<path d="M20 19.0834C19.839 19.0834 19.7084 19.214 19.7084 19.375V21.7083C19.7084 21.8694 19.839 22 20 22C20.1611 22 20.2917 21.8694 20.2917 21.7083V19.375C20.2917 19.214 20.1611 19.0834 20 19.0834Z" fill="white"/>
<path d="M20 14.4168C19.839 14.4168 19.7084 14.5474 19.7084 14.7085V17.0418C19.7084 17.2028 19.839 17.3334 20 17.3334C20.1611 17.3334 20.2917 17.2028 20.2917 17.0418V14.7085C20.2917 14.5474 20.1611 14.4168 20 14.4168Z" fill="white"/>
<path d="M20 10.3336C19.839 10.3336 19.7084 10.4641 19.7084 10.6252V12.3752C19.7084 12.5363 19.839 12.6669 20 12.6669C20.1611 12.6669 20.2917 12.5363 20.2917 12.3752V10.6252C20.2917 10.4641 20.1611 10.3336 20 10.3336Z" fill="white"/>
<path d="M20 8.00031C19.839 8.00031 19.7084 8.1309 19.7084 8.29198V8.87529C19.7084 9.03637 19.839 9.16696 20 9.16696C20.1611 9.16696 20.2917 9.03637 20.2917 8.87529V8.29195C20.2917 8.13087 20.1611 8.00031 20 8.00031Z" fill="white"/>
</g>
<defs>
<clipPath id="clip0_1862_1199">
<rect width="17" height="17" fill="white" transform="translate(13 8)"/>
</clipPath>
</defs>
</svg>
