<svg width="12" height="12" viewBox="0 0 12 12" fill="none" xmlns="http://www.w3.org/2000/svg">
<path d="M7.5455 8.00002C10.8305 7.98202 12 6.24202 12 4.75002C11.9997 4.35004 11.8624 3.96224 11.6109 3.65119C11.3595 3.34015 11.009 3.12462 10.618 3.04052C10.686 2.84702 10.745 2.66952 10.7845 2.53502C10.8718 2.24249 10.8889 1.93351 10.8346 1.63312C10.7802 1.33273 10.6558 1.04938 10.4715 0.806015C10.2857 0.554958 10.0434 0.35117 9.76423 0.211145C9.48505 0.0711203 9.17683 -0.00120762 8.8645 1.52521e-05H3.1355C2.82317 -0.00120762 2.51495 0.0711203 2.23577 0.211145C1.95659 0.35117 1.71429 0.554958 1.5285 0.806015C1.3442 1.04938 1.21983 1.33273 1.16545 1.63312C1.11107 1.93351 1.12822 2.24249 1.2155 2.53502C1.255 2.66952 1.3155 2.84702 1.382 3.04052C0.990967 3.12462 0.640546 3.34015 0.389089 3.65119C0.137632 3.96224 0.00031314 4.35004 0 4.75002C0 6.24202 1.1695 7.98202 4.4545 8.00002C4.4837 8.1518 4.49893 8.30595 4.5 8.46052V10C4.50859 10.1336 4.48861 10.2674 4.4414 10.3926C4.39418 10.5179 4.32081 10.6316 4.22618 10.7262C4.13155 10.8208 4.01784 10.8942 3.89262 10.9414C3.7674 10.9886 3.63355 11.0086 3.5 11H3C2.86739 11 2.74021 11.0527 2.64645 11.1465C2.55268 11.2402 2.5 11.3674 2.5 11.5C2.5 11.6326 2.55268 11.7598 2.64645 11.8536C2.74021 11.9473 2.86739 12 3 12H9C9.13261 12 9.25979 11.9473 9.35355 11.8536C9.44732 11.7598 9.5 11.6326 9.5 11.5C9.5 11.3674 9.44732 11.2402 9.35355 11.1465C9.25979 11.0527 9.13261 11 9 11H8.504C8.37017 11.009 8.23595 10.9894 8.11032 10.9424C7.98468 10.8954 7.87053 10.8221 7.7755 10.7274C7.68046 10.6328 7.60672 10.5189 7.55921 10.3935C7.5117 10.268 7.49151 10.1339 7.5 10V8.46002C7.50109 8.30561 7.51632 8.15164 7.5455 8.00002ZM10.25 4.00002C10.4489 4.00002 10.6397 4.07903 10.7803 4.21969C10.921 4.36034 11 4.5511 11 4.75002C11 5.76702 10.1955 6.85002 7.982 6.98502C8.09271 6.83392 8.22056 6.69616 8.363 6.57452C9.16001 5.85651 9.79522 4.97723 10.2265 3.99502C10.2345 3.99552 10.2415 4.00002 10.25 4.00002ZM1 4.75002C1 4.5511 1.07902 4.36034 1.21967 4.21969C1.36032 4.07903 1.55109 4.00002 1.75 4.00002C1.7585 4.00002 1.7655 3.99552 1.7735 3.99502C2.20478 4.97723 2.83999 5.85651 3.637 6.57452C3.77944 6.69616 3.90729 6.83392 4.018 6.98502C1.8045 6.85002 1 5.76702 1 4.75002ZM5.2565 11C5.4218 10.693 5.50564 10.3487 5.5 10V8.46052C5.50174 7.95744 5.39391 7.46002 5.184 7.00282C4.9741 6.54562 4.66715 6.13962 4.2845 5.81302C3.26776 4.84129 2.53782 3.60869 2.1745 2.25002C2.13181 2.1066 2.12359 1.95513 2.15053 1.80795C2.17746 1.66076 2.23879 1.52201 2.3295 1.40302C2.42277 1.27728 2.54434 1.17527 2.68437 1.10526C2.8244 1.03524 2.97895 0.99919 3.1355 1.00002H8.8645C9.02122 0.999421 9.17588 1.03578 9.31592 1.10615C9.45596 1.17652 9.57744 1.27891 9.6705 1.40502C9.76121 1.52401 9.82254 1.66276 9.84947 1.80995C9.87641 1.95713 9.86819 2.1086 9.8255 2.25202C9.46184 3.60997 8.73192 4.84184 7.7155 5.81302C7.33286 6.13952 7.02592 6.54543 6.81601 7.00255C6.6061 7.45967 6.49827 7.95701 6.5 8.46002V10C6.49436 10.3487 6.5782 10.693 6.7435 11H5.2565Z" fill="black"/>
</svg>
