<svg width="17" height="17" viewBox="0 0 17 17" fill="none" xmlns="http://www.w3.org/2000/svg">
<g clip-path="url(#clip0_378_29)">
<path d="M13.6942 10.3892C13.1587 10.3896 12.6312 10.5204 12.1575 10.7701C11.6837 11.0199 11.2779 11.3812 10.9749 11.8228L6.36438 9.74105C6.69185 8.95029 6.69312 8.06208 6.36792 7.27039L10.9721 5.17797C11.4211 5.82734 12.0879 6.29428 12.8517 6.49409C13.6155 6.69389 14.4256 6.61334 15.135 6.26703C15.8445 5.92073 16.4064 5.33161 16.7187 4.60653C17.031 3.88146 17.0731 3.06846 16.8373 2.31501C16.6016 1.56156 16.1036 0.917555 15.4337 0.499821C14.7638 0.0820881 13.9663 -0.0817079 13.186 0.0381446C12.4057 0.157997 11.6942 0.55356 11.1805 1.15308C10.6668 1.7526 10.3851 2.51637 10.3863 3.30584C10.3893 3.4927 10.4083 3.67896 10.443 3.86259L5.54838 6.08676C5.07829 5.64633 4.48978 5.35281 3.85516 5.24226C3.22054 5.13171 2.56745 5.20894 1.97612 5.46446C1.38479 5.71998 0.880975 6.14267 0.526575 6.6806C0.172176 7.21853 -0.0173755 7.84826 -0.0187908 8.49244C-0.0202062 9.13661 0.166576 9.76717 0.518608 10.3067C0.870641 10.8461 1.37259 11.271 1.96279 11.5292C2.55299 11.7873 3.20574 11.8674 3.84084 11.7596C4.47594 11.6518 5.06573 11.3609 5.53775 10.9226L10.4451 13.1382C10.411 13.3217 10.3923 13.5077 10.3891 13.6943C10.389 14.3481 10.5828 14.9874 10.946 15.5311C11.3092 16.0749 11.8254 16.4987 12.4295 16.749C13.0336 16.9993 13.6983 17.0648 14.3397 16.9373C14.981 16.8097 15.5701 16.4949 16.0325 16.0325C16.4948 15.5702 16.8097 14.9811 16.9372 14.3397C17.0648 13.6984 16.9992 13.0337 16.7489 12.4296C16.4986 11.8255 16.0748 11.3092 15.5311 10.946C14.9873 10.5828 14.3481 10.389 13.6942 10.3892ZM13.6942 1.41672C14.0679 1.41658 14.4332 1.52726 14.7439 1.73475C15.0547 1.94225 15.2969 2.23724 15.44 2.58242C15.5831 2.9276 15.6206 3.30746 15.5478 3.67396C15.475 4.04046 15.2952 4.37714 15.031 4.64141C14.7668 4.90568 14.4302 5.08567 14.0637 5.15862C13.6973 5.23157 13.3174 5.1942 12.9721 5.05124C12.6269 4.90827 12.3318 4.66614 12.1242 4.35546C11.9166 4.04478 11.8058 3.67951 11.8058 3.30584C11.8062 2.80506 12.0052 2.32487 12.3593 1.9707C12.7133 1.61652 13.1934 1.41728 13.6942 1.41672ZM3.30579 10.3892C2.93213 10.3893 2.56682 10.2786 2.25606 10.0711C1.9453 9.86365 1.70306 9.56866 1.55997 9.22348C1.41687 8.8783 1.37936 8.49844 1.45217 8.13194C1.52499 7.76544 1.70485 7.42876 1.96902 7.16449C2.23319 6.90022 2.5698 6.72023 2.93628 6.64728C3.30275 6.57433 3.68263 6.6117 4.02786 6.75466C4.37309 6.89762 4.66818 7.13976 4.87579 7.45044C5.0834 7.76112 5.19421 8.12639 5.19421 8.50005C5.19365 9.00078 4.99453 9.48086 4.64053 9.835C4.28652 10.1891 3.80653 10.3884 3.30579 10.3892ZM13.6942 15.5834C13.3206 15.5834 12.9553 15.4726 12.6447 15.265C12.334 15.0574 12.0919 14.7624 11.9489 14.4172C11.8059 14.072 11.7685 13.6922 11.8414 13.3257C11.9143 12.9593 12.0942 12.6226 12.3584 12.3584C12.6226 12.0942 12.9592 11.9143 13.3257 11.8414C13.6921 11.7685 14.072 11.806 14.4171 11.9489C14.7623 12.0919 15.0574 12.3341 15.265 12.6447C15.4725 12.9554 15.5833 13.3206 15.5833 13.6943C15.583 14.1952 15.3838 14.6755 15.0296 15.0297C14.6754 15.3839 14.1951 15.583 13.6942 15.5834Z" fill="#215154"/>
</g>
<defs>
<clipPath id="clip0_378_29">
<rect width="17" height="17" fill="white"/>
</clipPath>
</defs>
</svg>
