<svg width="16" height="16" viewBox="0 0 16 16" fill="none" xmlns="http://www.w3.org/2000/svg">
<path d="M15.9583 5.7942C15.8535 5.47022 15.5662 5.24011 15.2262 5.20947L10.6082 4.79015L8.78207 0.516003C8.64742 0.202764 8.34077 0 8.00006 0C7.65936 0 7.35271 0.202764 7.21806 0.516736L5.39197 4.79015L0.77321 5.20947C0.433846 5.24085 0.147218 5.47022 0.0418691 5.7942C-0.0634801 6.11819 0.0338122 6.47354 0.290532 6.69755L3.78121 9.7589L2.75189 14.2931C2.67657 14.6264 2.80597 14.9711 3.08259 15.171C3.23128 15.2784 3.40523 15.3331 3.58065 15.3331C3.7319 15.3331 3.88193 15.2924 4.01657 15.2118L8.00006 12.831L11.9821 15.2118C12.2735 15.3871 12.6408 15.3711 12.9168 15.171C13.1935 14.9704 13.3228 14.6257 13.2475 14.2931L12.2182 9.7589L15.7089 6.69816C15.9656 6.47354 16.0636 6.1188 15.9583 5.7942Z" fill="white"/>
</svg>
