<svg width="14" height="14" viewBox="0 0 14 14" fill="none" xmlns="http://www.w3.org/2000/svg">
<g clip-path="url(#clip0_219_105)">
<path d="M5.17442 13.7196C5.06449 13.7196 4.95227 13.7034 4.83772 13.6658C4.2696 13.4824 4.03761 12.9079 3.83279 12.4017C3.75008 12.198 3.61237 11.8572 3.52038 11.7907C3.42954 11.7253 3.07086 11.7011 2.85623 11.6866C2.3396 11.6519 1.69683 11.6091 1.33178 11.126C0.956879 10.6302 1.12177 9.99843 1.25425 9.49104C1.30807 9.28451 1.39888 8.93854 1.36418 8.83208C1.32948 8.72506 1.06798 8.5081 0.895572 8.36405C0.496966 8.03372 0 7.62123 0 7.00047C0 6.37564 0.506208 5.95852 0.91351 5.62297C1.07435 5.49049 1.34337 5.26891 1.37807 5.16883C1.41048 5.06413 1.32021 4.71351 1.267 4.5041C1.13219 3.97706 0.978892 3.37886 1.31906 2.89171C1.66735 2.39242 2.31704 2.3502 2.83889 2.31608C3.05642 2.30218 3.42032 2.27848 3.51114 2.21195C3.60545 2.14367 3.74256 1.80525 3.82413 1.60333C4.02776 1.09999 4.25861 0.530154 4.8244 0.338084C5.40004 0.141392 5.94445 0.488508 6.38065 0.766195C6.57852 0.89231 6.87704 1.08208 7.00083 1.08208C7.12695 1.08208 7.42837 0.891161 7.62796 0.765047C8.0821 0.47809 8.59643 0.152959 9.16283 0.335185C9.73037 0.518587 9.96294 1.0925 10.1672 1.59871C10.2499 1.80235 10.3882 2.14369 10.4802 2.21022C10.571 2.27618 10.9308 2.29989 11.1455 2.31435C11.6639 2.34905 12.3095 2.39245 12.6676 2.88132C13.0281 3.37306 12.8672 3.99847 12.7382 4.50123C12.6844 4.71009 12.5947 5.05953 12.6294 5.16828C12.6641 5.27474 12.9366 5.50093 13.0998 5.63574C13.5007 5.96724 14 6.38032 14 7.0011C14 7.62593 13.4938 8.04362 13.0865 8.37917C12.9262 8.51166 12.6566 8.73323 12.6219 8.83331C12.5901 8.93744 12.678 9.28399 12.7307 9.4917C12.8655 10.0234 13.0182 10.6268 12.6624 11.1145C12.3089 11.5999 11.6934 11.6409 11.1507 11.678C10.9332 11.6924 10.5693 11.7168 10.4773 11.7844C10.3836 11.8533 10.247 12.1917 10.1649 12.3936C9.96064 12.8964 9.73037 13.4662 9.16455 13.6595C8.58891 13.8556 8.04798 13.5108 7.61407 13.2348C7.41853 13.1099 7.1229 12.9213 6.99966 12.9213C6.87354 12.9213 6.57212 13.1122 6.37253 13.2383C6.01098 13.4656 5.61007 13.7196 5.17442 13.7196ZM5.17442 1.43784C5.1183 1.48933 4.97945 1.8324 4.89673 2.03721C4.72837 2.45261 4.55481 2.88244 4.19498 3.14569C3.83225 3.41124 3.36536 3.44189 2.91409 3.4714C2.69946 3.48471 2.3396 3.50842 2.25108 3.57205C2.24124 3.64378 2.33323 4.00249 2.38762 4.21712C2.49984 4.6568 2.61671 5.11097 2.47498 5.53503C2.3373 5.94868 1.98729 6.23678 1.64884 6.51565C1.4857 6.64985 1.18253 6.90036 1.15592 7.00914C1.18081 7.09823 1.47643 7.34411 1.63552 7.47602C1.96008 7.74619 2.32746 8.05109 2.46571 8.47748C2.604 8.90444 2.4819 9.37247 2.3743 9.78497C2.31991 9.99326 2.2285 10.3433 2.26437 10.4457C2.33553 10.4937 2.72431 10.5197 2.93375 10.5336C3.37808 10.5631 3.83742 10.5938 4.19727 10.853C4.56 11.1145 4.73589 11.5489 4.90597 11.969C4.98811 12.172 5.12525 12.511 5.21491 12.5753C5.27854 12.5614 5.57649 12.3716 5.75467 12.2594C6.12263 12.0268 6.53917 11.763 7.00083 11.763C7.46135 11.763 7.87385 12.0262 8.23775 12.2576C8.41421 12.3699 8.70868 12.5591 8.81396 12.5591C8.87065 12.507 9.00951 12.1639 9.09225 11.9591C9.26061 11.5431 9.43475 11.1139 9.794 10.8506C10.1567 10.5845 10.6439 10.5521 11.0737 10.5232C11.2907 10.5093 11.6534 10.4844 11.7413 10.4185C11.7535 10.345 11.6632 9.98918 11.6094 9.7763C11.4989 9.3401 11.3844 8.88883 11.525 8.46766C11.6626 8.05401 12.0127 7.76531 12.3511 7.48704C12.5096 7.35571 12.8023 7.11447 12.8417 7.00165C12.8035 6.89229 12.5177 6.65568 12.3632 6.52781C12.0369 6.25822 11.6673 5.95218 11.5296 5.52579C11.3913 5.09768 11.5116 4.62847 11.6175 4.21425C11.6719 4.00481 11.7616 3.65365 11.7263 3.55124C11.6574 3.50902 11.2889 3.48471 11.0685 3.46967C10.6236 3.44017 10.1637 3.40951 9.80325 3.14974C9.44052 2.88824 9.26463 2.45376 9.09455 2.03374C9.0124 1.83125 8.8753 1.49223 8.78561 1.42802C8.72255 1.44249 8.42403 1.63166 8.24582 1.74449C7.87787 1.97705 7.46132 2.24088 6.99966 2.24088C6.53914 2.24088 6.12432 1.97648 5.75812 1.74391C5.58057 1.62816 5.28087 1.43784 5.17442 1.43784ZM12.8441 7.00914H12.8504H12.8441Z" fill="#215154"/>
<path d="M6.23082 9.41297C6.0775 9.41297 5.93058 9.35281 5.8218 9.24346L4.27712 7.69877C4.05092 7.47258 4.05092 7.10692 4.27712 6.88072C4.50331 6.65453 4.86897 6.65453 5.09516 6.88072L6.19265 7.97764L8.77176 4.89346C8.97658 4.64933 9.34045 4.61517 9.58691 4.82114C9.83222 5.02595 9.86403 5.391 9.65982 5.63629L6.67458 9.20586C6.57045 9.33025 6.41887 9.40545 6.25628 9.41239C6.24819 9.41297 6.23949 9.41297 6.23082 9.41297Z" fill="#215154"/>
</g>
<defs>
<clipPath id="clip0_219_105">
<rect width="14" height="14" fill="white"/>
</clipPath>
</defs>
</svg>
