<?xml version="1.0" encoding="UTF-8"?>
<svg xmlns="http://www.w3.org/2000/svg" id="Line_Expand" data-name="Line Expand" viewBox="0 0 64 64" width="45" height="45"><path d="M63,20a1,1,0,0,0,1-1V15a1,1,0,0,0-1-1H61V11a1,1,0,0,0-1-1H53a1,1,0,0,0-1,1v3.025c-1.626.033-3.231.154-4.816.341l-.214-2.453A1,1,0,0,0,45.887,11l-6.974.61A1,1,0,0,0,38,12.7l.312,3.563c-.78.245-1.554.5-2.316.785V16a1,1,0,0,0-1-1H32V12h3a1,1,0,0,0,1-1V4a1,1,0,0,0-1-1H32V1a1,1,0,0,0-1-1H27a1,1,0,0,0-1,1V3H10V1A1,1,0,0,0,9,0H5A1,1,0,0,0,4,1V3H1A1,1,0,0,0,0,4v7a1,1,0,0,0,1,1H4v3H1a1,1,0,0,0-1,1v7a1,1,0,0,0,1,1H4v3H1a1,1,0,0,0-1,1v7a1,1,0,0,0,1,1H4v3H1a1,1,0,0,0-1,1v8a1,1,0,0,0,1,1H4v3H1a1,1,0,0,0-1,1v7a1,1,0,0,0,1,1H4v2a1,1,0,0,0,1,1H9a1,1,0,0,0,1-1c0-.671.02-1.337.051-2H26v2a1,1,0,0,0,1,1h4a1,1,0,0,0,1-1c0-.675.039-1.341.1-2H35a1,1,0,0,0,1-1V53a.988.988,0,0,0-.87-.974,21.124,21.124,0,0,1,5.777-6.148l.06.689a1,1,0,0,0,1.083.909l6.974-.609a1,1,0,0,0,.909-1.083l-.3-3.479A20.8,20.8,0,0,1,52,42.051V45a1,1,0,0,0,1,1h7a1,1,0,0,0,1-1V42h2a1,1,0,0,0,1-1V37a1,1,0,0,0-1-1H61V20ZM32,5h2v5H32ZM4,59H2V54H4ZM4,47H2V41H4ZM4,34H2V29H4ZM4,22H2V17H4ZM4,10H2V5H4Zm50,2h5v2H54Zm-8.936,1.083.137,1.558a48.7,48.7,0,0,0-4.928,1.049l-.19-2.17ZM32,17h2v.835c-.675.285-1.341.589-2,.9ZM28,2h2V19.75q-1.015.541-2,1.13ZM10,5H26v5H10Zm0,7H26v3H10Zm0,5H26v5H10Zm0,7H23.38q-1.86,1.416-3.577,3H10Zm0,5h7.765a49.392,49.392,0,0,0-4.23,5H10Zm0,7h2.138c-.759,1.145-1.475,2.32-2.138,3.529ZM6,2H8V43.629a48.635,48.635,0,0,0-2,5.542ZM26,59H10.193a42.642,42.642,0,0,1,.762-5H26Zm0-7H11.432c.269-1.016.58-2.015.921-3H26Zm0-5H13.1a42.928,42.928,0,0,1,2.974-6H26Zm0-8H17.338c.7-1.034,1.446-2.032,2.229-3H26Zm0-5H21.282A43.281,43.281,0,0,1,26,29.567Zm8,25H32.393A20.775,20.775,0,0,1,34,54.114Zm8.873-13.6-.063-.716a20.8,20.8,0,0,1,4.848-1.956l.2,2.237ZM59,44H54V42h5Zm3-6v2H53A23.024,23.024,0,0,0,32.494,52.6l-.011.024A22.838,22.838,0,0,0,30.021,62h-2A25.03,25.03,0,0,1,53,38ZM28,52.817V28.048q.979-.7,2-1.352V48.877A26.933,26.933,0,0,0,28,52.817ZM35,36a1,1,0,0,0,1-1V28a1,1,0,0,0-1-1H32V25.5A42.833,42.833,0,0,1,38.853,22.4l1.467,16.77A27.061,27.061,0,0,0,36,42.044V40a1,1,0,0,0-1-1H32V36Zm-3-2V29h2v5Zm2,7v2.838a27.305,27.305,0,0,0-2,2.218V41Zm6.805-19.228a42.717,42.717,0,0,1,4.919-1.144l1.4,16.023a26.828,26.828,0,0,0-4.88,1.589Zm6.9-1.434q2.118-.263,4.294-.313v16a27.106,27.106,0,0,0-2.9.26ZM54,36V20h5V36ZM53,18A45.053,45.053,0,0,0,8.011,62h-2A47.055,47.055,0,0,1,53,16h9v2Z"/></svg>
