<?xml version="1.0" encoding="iso-8859-1"?>
<!-- Generator: Adobe Illustrator 19.0.0, SVG Export Plug-In . SVG Version: 6.00 Build 0)  -->
<svg version="1.1" id="Capa_1" xmlns="http://www.w3.org/2000/svg" xmlns:xlink="http://www.w3.org/1999/xlink" x="0px" y="0px"
	 viewBox="0 0 513.504 513.504" style="enable-background:new 0 0 513.504 513.504;" xml:space="preserve">
<path style="fill:#FFD15C;" d="M419.664,426.176H84.261c-11.776,0-21.333-9.547-21.333-21.333V81.717
	c0-11.776,9.557-21.333,21.333-21.333h335.403c11.776,0,21.333,9.557,21.333,21.333v323.125
	C440.997,416.629,431.44,426.176,419.664,426.176"/>
<path style="fill:#40596B;" d="M374.267,23.339L355.163,3.317C353.157,1.216,350.373,0,347.451,0H156.453
	c-2.901,0-5.696,1.205-7.723,3.317L129.659,23.36c-4.075,4.245-3.915,10.997,0.363,15.061c2.059,1.984,4.693,2.955,7.339,2.955
	c2.827,0,5.621-1.109,7.733-3.317l15.936-16.704h80.117v39.029h21.333V21.365h80.395l15.947,16.704
	c4.064,4.267,10.795,4.416,15.083,0.352C378.16,34.357,378.331,27.616,374.267,23.339"/>
<polygon style="fill:#ACB3BA;" points="332.304,425.867 341.765,450.795 184.571,450.795 194.043,425.867 136.624,425.867 
	75.771,513.504 160.784,513.504 176.272,472.672 350.064,472.672 365.563,513.504 450.576,513.504 389.701,425.867 "/>
<g>
	<rect x="271.813" y="103.051" style="fill:#FFFFFF;" width="25" height="25"/>
	<path style="fill:#FFFFFF;" d="M385.381,361.28c0,16-12.971,28.981-28.981,28.981c-16,0-28.992-12.981-28.992-28.981
		s12.992-28.981,28.992-28.981C372.411,332.299,385.381,345.28,385.381,361.28"/>
	<rect x="104.773" y="103.051" style="fill:#FFFFFF;" width="25" height="25"/>
</g>
<g>
	<polygon style="fill:#F2F2F2;" points="214.992,103.072 104.805,213.259 104.805,191.072 192.805,103.072 	"/>
	<polygon style="fill:#F2F2F2;" points="231.312,103.072 231.312,145.301 148.848,227.755 104.805,227.755 104.805,227.424 
		229.072,103.072 	"/>
	<polygon style="fill:#F2F2F2;" points="382.032,103.072 271.856,213.259 271.856,191.072 359.856,103.072 	"/>
	<polygon style="fill:#F2F2F2;" points="398.352,103.072 398.352,145.301 315.888,227.755 271.856,227.755 271.856,227.424 
		396.112,103.072 	"/>
</g>
<path style="fill:#FFFFFF;" d="M175.685,361.28c0,16-12.971,28.981-28.981,28.981c-16,0-28.981-12.981-28.981-28.981
	s12.981-28.981,28.981-28.981C162.715,332.299,175.685,345.28,175.685,361.28"/>
<g>
</g>
<g>
</g>
<g>
</g>
<g>
</g>
<g>
</g>
<g>
</g>
<g>
</g>
<g>
</g>
<g>
</g>
<g>
</g>
<g>
</g>
<g>
</g>
<g>
</g>
<g>
</g>
<g>
</g>
</svg>
