<svg width="50" height="50" viewBox="0 0 40 40" fill="none" xmlns="http://www.w3.org/2000/svg">
<path d="M28.7242 5.52333C25.8779 3.25548 22.2604 2.18511 18.6384 2.53907C15.0163 2.89303 11.6745 4.64352 9.32108 7.41951C6.96771 10.1955 5.7878 13.7788 6.03143 17.4099C6.27506 21.0411 7.92309 24.4346 10.6262 26.8713C13.1666 29.0517 15.2646 31.6997 16.8062 34.6713L18.1102 37.2713C18.2761 37.6041 18.5315 37.8841 18.8477 38.0798C19.1639 38.2755 19.5284 38.3792 19.9002 38.3792C20.2721 38.3792 20.6366 38.2755 20.9528 38.0798C21.269 37.8841 21.5243 37.6041 21.6902 37.2713L22.9922 34.6713C24.3168 31.8412 26.2397 29.3321 28.6282 27.3173C30.2619 26.0124 31.5826 24.358 32.4932 22.4758C33.4039 20.5935 33.8813 18.5312 33.8905 16.4403C33.8997 14.3494 33.4405 12.2829 32.5464 10.3928C31.6524 8.50258 30.3464 6.83665 28.7242 5.51733V5.52333Z" fill="#042729"/>
<g clip-path="url(#clip0_1862_1323)">
<path d="M22.1891 10.0938C22.0381 10.0938 21.9156 10.2163 21.9156 10.3672C21.9156 10.5181 22.0381 10.6406 22.1891 10.6406C22.34 10.6406 22.4625 10.5181 22.4625 10.3672C22.4625 10.2163 22.34 10.0938 22.1891 10.0938Z" fill="white"/>
<path d="M17.8141 10.0938C17.6631 10.0938 17.5406 10.2163 17.5406 10.3672C17.5406 10.5181 17.6631 10.6406 17.8141 10.6406C17.965 10.6406 18.0875 10.5181 18.0875 10.3672C18.0875 10.2163 17.965 10.0938 17.8141 10.0938Z" fill="white"/>
<path d="M25.6885 22.5375L23.8791 20.6472C24.6101 20.621 25.1968 20.0185 25.1968 19.2812V11.1675C25.1968 10.7257 25.0424 10.2943 24.7619 9.95271C24.4813 9.61119 24.0882 9.37584 23.6551 9.29017C22.6846 9.09762 21.691 9 20.7018 9H19.2572C18.3164 9 17.3364 9.09012 16.3448 9.28831C15.4532 9.46668 14.8062 10.2561 14.8062 11.1654V19.2812C14.8062 20.0247 15.4028 20.6311 16.1424 20.6476L14.3125 22.5363C14.2361 22.6152 14.2143 22.7321 14.2571 22.8332C14.2999 22.9343 14.3991 23 14.5089 23H16.464C16.5517 23 16.634 22.958 16.6854 22.887L17.5149 21.7422H22.5124L23.3418 22.887C23.3933 22.958 23.4756 23 23.5633 23H25.491C25.6005 23 25.6994 22.9346 25.7424 22.834C25.7855 22.7332 25.7642 22.6166 25.6885 22.5375ZM15.353 19.2812V11.1654C15.353 10.5159 15.8152 9.95197 16.452 9.82455C17.3446 9.64616 18.2877 9.54688 19.2572 9.54688H20.7017C21.6553 9.54688 22.6131 9.64096 23.5487 9.82657C23.8581 9.8878 24.1389 10.0559 24.3393 10.2998C24.5396 10.5438 24.6499 10.8519 24.6499 11.1675V19.2812C24.6499 19.7336 24.2819 20.1016 23.8296 20.1016H16.1733C15.721 20.1016 15.353 19.7336 15.353 19.2812ZM16.3245 22.4531H15.1546L16.903 20.6484H17.632L16.3245 22.4531ZM17.9111 21.1953L18.3074 20.6484H21.7199L22.1161 21.1953H17.9111ZM23.7028 22.4531L22.3953 20.6484H23.1233L24.8507 22.4531H23.7028Z" fill="white"/>
<path d="M23.8297 11.1875H16.1735C16.0225 11.1875 15.9 11.3099 15.9 11.4609V16C15.9 16.151 16.0225 16.2734 16.1735 16.2734H23.8297C23.9807 16.2734 24.1031 16.151 24.1031 16V11.4609C24.1031 11.3099 23.9807 11.1875 23.8297 11.1875ZM19.7281 15.7266H16.4469V11.7344H19.7281V15.7266ZM23.5563 15.7266H20.275V11.7344H23.5563V15.7266Z" fill="white"/>
<path d="M21.0953 10.0938H18.9078C18.7568 10.0938 18.6344 10.2162 18.6344 10.3672C18.6344 10.5182 18.7568 10.6406 18.9078 10.6406H21.0953C21.2463 10.6406 21.3688 10.5182 21.3688 10.3672C21.3688 10.2162 21.2463 10.0938 21.0953 10.0938Z" fill="white"/>
<path d="M23.0094 17.0938C22.4063 17.0938 21.9156 17.5844 21.9156 18.1875C21.9156 18.7906 22.4063 19.2812 23.0094 19.2812C23.6125 19.2812 24.1031 18.7906 24.1031 18.1875C24.1031 17.5844 23.6125 17.0938 23.0094 17.0938ZM23.0094 18.7344C22.7079 18.7344 22.4625 18.489 22.4625 18.1875C22.4625 17.886 22.7079 17.6406 23.0094 17.6406C23.3109 17.6406 23.5563 17.886 23.5563 18.1875C23.5563 18.489 23.3109 18.7344 23.0094 18.7344Z" fill="white"/>
<path d="M16.9938 17.0938C16.3907 17.0938 15.9 17.5844 15.9 18.1875C15.9 18.7906 16.3907 19.2812 16.9938 19.2812C17.5969 19.2812 18.0875 18.7906 18.0875 18.1875C18.0875 17.5844 17.5969 17.0938 16.9938 17.0938ZM16.9938 18.7344C16.6922 18.7344 16.4469 18.489 16.4469 18.1875C16.4469 17.886 16.6922 17.6406 16.9938 17.6406C17.2953 17.6406 17.5406 17.886 17.5406 18.1875C17.5406 18.489 17.2953 18.7344 16.9938 18.7344Z" fill="white"/>
<path d="M21.0953 17.3672H18.9078C18.7568 17.3672 18.6344 17.4896 18.6344 17.6406C18.6344 17.7916 18.7568 17.9141 18.9078 17.9141H21.0953C21.2463 17.9141 21.3688 17.7916 21.3688 17.6406C21.3688 17.4896 21.2464 17.3672 21.0953 17.3672Z" fill="white"/>
<path d="M21.0953 18.4609H18.9078C18.7568 18.4609 18.6344 18.5834 18.6344 18.7344C18.6344 18.8854 18.7568 19.0078 18.9078 19.0078H21.0953C21.2463 19.0078 21.3688 18.8854 21.3688 18.7344C21.3688 18.5834 21.2464 18.4609 21.0953 18.4609Z" fill="white"/>
</g>
<defs>
<clipPath id="clip0_1862_1323">
<rect width="14" height="14" fill="white" transform="translate(13 9)"/>
</clipPath>
</defs>
</svg>
