<svg width="34" height="34" viewBox="0 0 34 34" fill="none" xmlns="http://www.w3.org/2000/svg">
<circle cx="17" cy="17" r="17" fill="#215154"/>
<path d="M23.0523 12.188H20.7621L20.4955 11.3675C20.3669 10.9691 20.1191 10.6225 19.7873 10.3769C19.4555 10.1314 19.0566 9.99948 18.6475 10H15.3525C14.9435 9.99968 14.5448 10.1317 14.2131 10.3772C13.8814 10.6227 13.6336 10.9693 13.5051 11.3675L13.2379 12.188H10.9477C10.4313 12.1886 9.93625 12.3993 9.5711 12.7738C9.20595 13.1483 9.00056 13.6561 9 14.1857V22.2267C9.00113 22.756 9.20677 23.2632 9.57185 23.6373C9.93694 24.0113 10.4317 24.2216 10.9477 24.2222H23.0544C23.5704 24.2211 24.065 24.0102 24.4297 23.6357C24.7943 23.2613 24.9994 22.7538 25 22.2245V14.1835C24.9989 13.6543 24.7932 13.147 24.4281 12.773C24.0631 12.399 23.5683 12.1886 23.0523 12.188ZM23.9333 22.2245C23.9331 22.4641 23.8401 22.6938 23.675 22.8632C23.5098 23.0326 23.2859 23.1279 23.0523 23.1282H10.9477C10.7141 23.1279 10.4902 23.0326 10.325 22.8632C10.1599 22.6938 10.0669 22.4641 10.0667 22.2245V14.1835C10.0675 13.9443 10.1607 13.7152 10.3258 13.5463C10.4909 13.3773 10.7145 13.2823 10.9477 13.2821H13.6224C13.7343 13.282 13.8433 13.2458 13.9341 13.1786C14.0248 13.1115 14.0926 13.0168 14.128 12.9079L14.5168 11.7116C14.5752 11.5317 14.6873 11.3751 14.8374 11.2643C14.9874 11.1534 15.1676 11.0939 15.3525 11.094H18.6475C18.8325 11.0938 19.0128 11.1534 19.1628 11.2644C19.3129 11.3754 19.425 11.5321 19.4832 11.7121L19.872 12.9079C19.9074 13.0168 19.9752 13.1115 20.0659 13.1786C20.1567 13.2458 20.2657 13.282 20.3776 13.2821H23.0523C23.2859 13.2823 23.5098 13.3776 23.675 13.547C23.8401 13.7165 23.9331 13.9461 23.9333 14.1857V22.2245Z" fill="white"/>
<path d="M17 13.829C16.2089 13.829 15.4355 14.0696 14.7777 14.5204C14.1199 14.9712 13.6072 15.6119 13.3045 16.3616C13.0017 17.1112 12.9225 17.9361 13.0769 18.7319C13.2312 19.5277 13.6122 20.2588 14.1716 20.8325C14.731 21.4063 15.4437 21.797 16.2196 21.9553C16.9956 22.1136 17.7998 22.0323 18.5307 21.7218C19.2616 21.4113 19.8864 20.8855 20.3259 20.2108C20.7654 19.5362 21 18.743 21 17.9316C20.9989 16.8438 20.5771 15.801 19.8272 15.0319C19.0773 14.2628 18.0605 13.8302 17 13.829ZM17 20.9401C16.4198 20.9401 15.8527 20.7637 15.3703 20.4331C14.8879 20.1025 14.512 19.6326 14.29 19.0829C14.0679 18.5331 14.0098 17.9282 14.123 17.3446C14.2362 16.761 14.5156 16.2249 14.9258 15.8042C15.3361 15.3834 15.8587 15.0969 16.4277 14.9808C16.9967 14.8647 17.5865 14.9243 18.1225 15.152C18.6585 15.3797 19.1167 15.7653 19.439 16.2601C19.7613 16.7549 19.9333 17.3365 19.9333 17.9316C19.9325 18.7292 19.6232 19.4939 19.0732 20.058C18.5233 20.622 17.7777 20.9392 17 20.9401Z" fill="white"/>
<path d="M22.0556 15.6667C22.3931 15.6667 22.6667 15.3931 22.6667 15.0556C22.6667 14.718 22.3931 14.4444 22.0556 14.4444C21.718 14.4444 21.4444 14.718 21.4444 15.0556C21.4444 15.3931 21.718 15.6667 22.0556 15.6667Z" fill="white"/>
</svg>
