<svg width="18" height="18" viewBox="0 0 24 24" fill="none" xmlns="http://www.w3.org/2000/svg">
<path d="M22 13C21.7348 13 21.4804 13.1054 21.2929 13.2929C21.1054 13.4804 21 13.7348 21 14V18.213C20.9992 18.9519 20.7053 19.6603 20.1828 20.1828C19.6603 20.7053 18.9519 20.9992 18.213 21H5.787C5.04809 20.9992 4.33966 20.7053 3.81717 20.1828C3.29468 19.6603 3.00079 18.9519 3 18.213V14C3 13.7348 2.89464 13.4804 2.70711 13.2929C2.51957 13.1054 2.26522 13 2 13C1.73478 13 1.48043 13.1054 1.29289 13.2929C1.10536 13.4804 1 13.7348 1 14V18.213C1.00132 19.4822 1.50609 20.699 2.40354 21.5965C3.30099 22.4939 4.51782 22.9987 5.787 23H18.213C19.4822 22.9987 20.699 22.4939 21.5965 21.5965C22.4939 20.699 22.9987 19.4822 23 18.213V14C23 13.7348 22.8946 13.4804 22.7071 13.2929C22.5196 13.1054 22.2652 13 22 13Z" fill="#215154"/>
<path d="M6.707 8.70697L11 4.41397V17C11 17.2652 11.1054 17.5195 11.2929 17.7071C11.4804 17.8946 11.7348 18 12 18C12.2652 18 12.5196 17.8946 12.7071 17.7071C12.8946 17.5195 13 17.2652 13 17V4.41397L17.293 8.70697C17.4816 8.88913 17.7342 8.98992 17.9964 8.98764C18.2586 8.98536 18.5094 8.8802 18.6948 8.69479C18.8802 8.50938 18.9854 8.25857 18.9877 7.99637C18.99 7.73417 18.8892 7.48157 18.707 7.29297L12.707 1.29297C12.5195 1.1055 12.2652 1.00018 12 1.00018C11.7348 1.00018 11.4805 1.1055 11.293 1.29297L5.293 7.29297C5.11084 7.48157 5.01005 7.73417 5.01232 7.99637C5.0146 8.25857 5.11977 8.50938 5.30518 8.69479C5.49059 8.8802 5.7414 8.98536 6.0036 8.98764C6.26579 8.98992 6.5184 8.88913 6.707 8.70697Z" fill="#215154"/>
</svg>
